<svg width="1536" height="1536" viewBox="0 0 1536 1536" fill="none" xmlns="http://www.w3.org/2000/svg">
<path d="M1171 685L749 1107C736.333 1119.67 721.333 1126 704 1126C686.667 1126 671.667 1119.67 659 1107L365 813C352.333 800.333 346 785.333 346 768C346 750.667 352.333 735.667 365 723L467 621C479.667 608.333 494.667 602 512 602C529.333 602 544.333 608.333 557 621L704 768L979 493C991.667 480.333 1006.67 474 1024 474C1041.33 474 1056.33 480.333 1069 493L1171 595C1183.67 607.667 1190 622.667 1190 640C1190 657.333 1183.67 672.333 1171 685ZM1312 768C1312 669.333 1287.67 578.333 1239 495C1190.33 411.667 1124.33 345.667 1041 297C957.667 248.333 866.667 224 768 224C669.333 224 578.333 248.333 495 297C411.667 345.667 345.667 411.667 297 495C248.333 578.333 224 669.333 224 768C224 866.667 248.333 957.667 297 1041C345.667 1124.33 411.667 1190.33 495 1239C578.333 1287.67 669.333 1312 768 1312C866.667 1312 957.667 1287.67 1041 1239C1124.33 1190.33 1190.33 1124.33 1239 1041C1287.67 957.667 1312 866.667 1312 768ZM1536 768C1536 907.333 1501.67 1035.83 1433 1153.5C1364.33 1271.17 1271.17 1364.33 1153.5 1433C1035.83 1501.67 907.333 1536 768 1536C628.667 1536 500.167 1501.67 382.5 1433C264.833 1364.33 171.667 1271.17 103 1153.5C34.3333 1035.83 0 907.333 0 768C0 628.667 34.3333 500.167 103 382.5C171.667 264.833 264.833 171.667 382.5 103C500.167 34.3333 628.667 0 768 0C907.333 0 1035.83 34.3333 1153.5 103C1271.17 171.667 1364.33 264.833 1433 382.5C1501.67 500.167 1536 628.667 1536 768Z" fill="#2E9398"/>
</svg>
