<svg width="1440" height="1024" viewBox="0 0 1440 1024" fill="none" xmlns="http://www.w3.org/2000/svg">
<g clip-path="url(#clip0_556_101)">
<path d="M29.22 -324H185.94L271.629 1041.38H-17.0068L29.22 -324Z" fill="#532741"/>
<path d="M706 194H206C200.477 194 196 198.477 196 204V227C196 232.523 200.477 237 206 237H706C711.522 237 716 232.523 716 227V204C716 198.477 711.522 194 706 194Z" fill="#532741"/>
<path d="M673 -244V227C673 232.523 677.477 237 683 237H706C711.523 237 716 232.523 716 227V-244C716 -249.523 711.523 -254 706 -254H683C677.477 -254 673 -249.523 673 -244Z" fill="#532741"/>
<path d="M91.2321 112.336H-461.235V155.18H91.2321V112.336Z" fill="#DBBCC2"/>
<path d="M694.5 112C764.916 112 822 54.9163 822 -15.5C822 -85.9163 764.916 -143 694.5 -143C624.084 -143 567 -85.9163 567 -15.5C567 54.9163 624.084 112 694.5 112Z" fill="#345C5E"/>
<path d="M128.627 186.254C317.302 186.254 470.254 33.3024 470.254 -155.373C470.254 -344.048 317.302 -497 128.627 -497C-60.0484 -497 -213 -344.048 -213 -155.373C-213 33.3024 -60.0484 186.254 128.627 186.254Z" fill="#345C5E"/>
</g>
<defs>
<clipPath id="clip0_556_101">
<rect width="1440" height="1024" fill="white"/>
</clipPath>
</defs>
</svg>
