<svg width="552" height="396" viewBox="0 0 552 396" fill="none" xmlns="http://www.w3.org/2000/svg">
<path d="M551.391 335.822C551.391 335.822 507.377 290.456 489.632 241.392C358.213 -121.941 102.114 31.2919 101.27 36.2909C101.27 36.2909 136.75 56.6649 156.987 84.1869C285.376 258.831 433.158 294.327 433.158 294.327C433.158 294.327 255.329 255.137 144.679 99.7649C120.253 65.4489 60.1106 42.2129 -0.000367626 32.3769C-0.000367626 32.3769 9.82762 56.7019 12.4896 67.1619C39.1076 71.2409 64.5956 79.7689 87.3646 94.1869C61.5106 311.338 236.488 382.459 297.501 391.75C441.601 413.679 551.391 335.822 551.391 335.822Z" fill="#119DA4"/>
</svg>
