<svg width="1440" height="1024" viewBox="0 0 1440 1024" fill="none" xmlns="http://www.w3.org/2000/svg">
<g clip-path="url(#clip0_273_107)">
<rect width="1440" height="1024" fill="white"/>
<path d="M29.2202 -324H185.94L271.629 1041.38H-17.0066L29.2202 -324Z" fill="#92475C"/>
<rect x="91" y="229" width="669" height="43" fill="#92475C"/>
<rect x="720" y="272" width="491" height="43" transform="rotate(-90 720 272)" fill="#92475C"/>
<rect x="-461.235" y="112.336" width="552.467" height="42.8444" fill="#92475C"/>
<circle cx="741.573" cy="-0.427155" r="146.573" fill="#119DA4"/>
<circle cx="128.627" cy="-155.373" r="341.627" fill="#119DA4"/>
<path d="M1404.16 41.2162L1383.22 21.947C1382.53 21.3205 1381.64 20.9815 1380.71 21.0008C1379.79 21.02 1378.91 21.3961 1378.25 22.0503L1358.99 41.3136L1358 42.302V70.7H1376.56V52.9812H1386.69V70.7H1405.25V42.219L1404.16 41.2162ZM1380.79 24.3751C1380.81 24.3751 1380.8 24.3815 1380.78 24.394C1380.77 24.3815 1380.76 24.3751 1380.79 24.3751ZM1401.88 67.325H1390.06V52.9812C1390.06 52.0861 1389.71 51.2277 1389.07 50.5948C1388.44 49.9618 1387.58 49.6062 1386.69 49.6062H1376.56C1375.67 49.6062 1374.81 49.9618 1374.18 50.5948C1373.54 51.2277 1373.19 52.0861 1373.19 52.9812V67.325H1361.38V43.7L1380.79 24.4368C1380.79 24.4355 1380.79 24.4343 1380.79 24.4331L1401.88 43.7V67.325Z" fill="black"/>
</g>
<defs>
<clipPath id="clip0_273_107">
<rect width="1440" height="1024" fill="white"/>
</clipPath>
</defs>
</svg>
