<svg width="601" height="396" viewBox="0 0 601 396" fill="none" xmlns="http://www.w3.org/2000/svg">
<path d="M-1.46925e-05 336.125C-1.46925e-05 336.125 47.974 290.718 67.3155 241.61C210.558 -122.051 489.699 31.3202 490.619 36.3237C490.619 36.3237 451.947 56.716 429.889 84.2628C289.949 259.064 128.871 294.592 128.871 294.592C128.871 294.592 322.699 255.367 443.304 99.8549C469.928 65.5079 535.481 42.251 601 32.4061C601 32.4061 590.288 56.7531 587.386 67.2225C558.373 71.3052 530.592 79.8409 505.775 94.2718C533.955 311.619 343.235 382.804 276.733 392.103C119.668 414.052 -1.46925e-05 336.125 -1.46925e-05 336.125Z" fill="#119DA4"/>
</svg>
