<?xml version="1.0" standalone="no"?>
<!DOCTYPE svg PUBLIC "-//W3C//DTD SVG 20010904//EN"
 "http://www.w3.org/TR/2001/REC-SVG-20010904/DTD/svg10.dtd">
<svg version="1.0" xmlns="http://www.w3.org/2000/svg"
 width="1280.000000pt" height="758.000000pt" viewBox="0 0 1280.000000 758.000000"
 preserveAspectRatio="xMidYMid meet">
<g transform="translate(0.000000,758.000000) scale(0.100000,-0.100000)"
fill="#000000" stroke="none">
<path d="M7580 7445 c0 -151 27 -343 66 -477 4 -12 0 -18 -12 -18 -9 0 -161
77 -336 171 -176 94 -323 168 -326 165 -10 -11 -31 -141 -32 -196 0 -100 35
-237 90 -347 53 -107 59 -129 36 -120 -8 3 -65 22 -126 41 -221 70 -457 112
-689 123 l-139 6 5 -49 c8 -87 42 -206 79 -278 43 -85 87 -144 162 -213 31
-29 54 -54 51 -57 -2 -3 -39 4 -82 15 -255 65 -510 64 -759 -2 -43 -12 -84
-19 -91 -16 -7 2 -20 44 -30 93 -13 69 -26 104 -64 166 -26 43 -53 78 -61 78
-8 0 -41 -14 -73 -32 -81 -43 -179 -148 -221 -238 -18 -38 -36 -70 -40 -70 -5
0 -8 30 -8 66 0 36 -9 111 -21 167 -21 105 -74 257 -89 257 -12 0 -101 -127
-147 -208 -39 -70 -135 -287 -155 -351 -7 -23 -18 -41 -24 -41 -6 0 -25 26
-40 57 -16 32 -58 87 -94 123 -68 69 -146 127 -156 117 -3 -3 -20 -70 -36
-149 -32 -151 -42 -176 -62 -144 -126 212 -287 392 -451 502 -102 70 -194 118
-203 109 -4 -4 -6 -71 -5 -150 1 -139 18 -265 49 -369 17 -60 18 -86 3 -86 -7
0 -157 79 -335 175 -178 96 -326 175 -328 175 -13 0 -28 -157 -23 -249 5 -121
28 -203 90 -329 22 -45 38 -85 35 -88 -4 -3 -48 8 -100 25 -133 42 -280 78
-410 100 -105 18 -338 41 -416 41 l-35 0 7 -69 c15 -169 83 -308 212 -438 50
-51 90 -94 87 -96 -2 -3 -36 4 -76 14 -137 36 -248 50 -391 50 -148 1 -230 -9
-361 -42 -115 -30 -117 -31 -101 -78 26 -71 56 -119 113 -182 l58 -62 -50 7
c-270 36 -414 23 -617 -56 -43 -16 -80 -33 -83 -37 -2 -5 65 -63 150 -130 85
-67 155 -128 155 -135 0 -7 -72 -47 -161 -89 l-161 -76 19 -32 c30 -52 134
-152 197 -188 99 -59 157 -74 291 -77 66 -2 121 -7 122 -11 2 -5 -141 -98
-317 -207 -176 -110 -320 -203 -320 -208 0 -4 50 -8 111 -8 64 0 108 -4 104
-9 -10 -16 -94 -60 -197 -101 -98 -39 -265 -80 -327 -80 -17 0 -31 -3 -31 -6
0 -11 202 -233 227 -249 13 -9 23 -21 21 -27 -2 -5 -44 -31 -93 -56 -50 -26
-90 -53 -90 -61 0 -22 126 -113 221 -161 46 -23 84 -46 84 -50 0 -23 -372
-225 -472 -256 -31 -9 -55 -20 -53 -24 8 -13 190 -118 234 -136 23 -9 39 -20
34 -24 -4 -5 -64 -13 -132 -20 l-125 -12 -58 -45 c-40 -32 -66 -62 -84 -100
l-27 -54 17 -75 c9 -41 16 -88 16 -104 0 -36 11 -38 53 -6 51 38 148 84 215
101 56 15 70 15 151 1 98 -17 141 -31 141 -45 0 -5 -30 -16 -66 -25 -113 -29
-153 -53 -175 -105 -28 -68 -33 -74 -60 -76 -13 -1 -63 -10 -111 -20 -87 -18
-148 -15 -271 11 -37 9 -35 -3 21 -109 56 -108 131 -191 222 -245 36 -22 65
-44 65 -50 0 -6 -36 -34 -80 -62 -114 -74 -204 -143 -205 -156 0 -7 29 -20 65
-29 36 -10 68 -22 72 -28 3 -5 -25 -40 -63 -78 -37 -38 -65 -71 -62 -75 4 -3
47 3 96 15 49 12 112 21 139 21 52 0 162 -25 177 -40 11 -11 -71 -92 -117
-116 -15 -8 -25 -19 -22 -24 8 -13 70 -32 128 -39 66 -8 70 -26 13 -52 -85
-37 -180 -51 -323 -47 -73 2 -133 1 -132 -2 1 -12 154 -137 202 -166 88 -52
139 -64 263 -64 65 0 115 -4 119 -10 9 -15 -172 -207 -222 -237 -24 -14 -43
-29 -43 -34 0 -4 24 -15 53 -24 209 -63 441 20 560 200 23 36 45 65 48 65 4 0
4 -57 1 -128 -4 -116 -3 -132 18 -180 12 -28 28 -52 34 -52 20 0 171 136 223
201 102 130 180 273 218 405 19 65 30 84 51 84 11 0 14 -29 14 -151 l0 -151
25 16 c13 9 28 16 32 16 4 0 6 -56 4 -125 l-3 -126 28 6 c129 29 165 49 284
155 95 85 122 101 134 82 3 -5 -15 -65 -39 -134 -24 -69 -49 -154 -55 -189 -6
-35 -13 -72 -16 -81 -5 -16 2 -18 53 -18 74 1 201 23 239 43 59 30 92 83 122
192 10 36 22 67 27 68 4 1 14 -23 20 -53 15 -76 36 -111 97 -163 63 -53 238
-171 238 -160 0 4 -7 42 -17 85 -18 84 -11 166 20 241 15 35 47 52 47 25 1
-29 200 -328 219 -328 5 0 11 33 13 73 6 74 35 178 53 184 6 1 25 -30 44 -70
25 -52 53 -91 105 -143 74 -74 127 -107 195 -123 50 -11 51 -5 14 75 -26 56
-28 69 -31 223 -4 182 0 198 45 165 26 -20 137 -160 212 -269 l33 -49 84 160
c46 87 98 193 115 234 50 117 54 116 55 -23 2 -153 15 -225 61 -323 51 -113
120 -214 145 -214 16 0 165 181 237 290 42 64 99 164 126 223 28 59 53 107 58
107 4 0 7 -64 7 -143 0 -126 -14 -277 -36 -386 -4 -20 -3 -32 2 -29 5 2 101
46 214 98 113 51 213 101 222 112 20 22 40 89 64 210 9 49 20 88 24 88 11 0
20 -27 20 -63 0 -18 11 -57 23 -88 64 -155 156 -204 498 -266 24 -4 28 1 62
81 51 121 134 242 153 223 11 -10 23 -88 24 -144 0 -29 4 -53 8 -53 23 0 116
172 166 309 17 45 35 84 41 85 5 0 29 -28 54 -62 41 -60 51 -67 140 -109 117
-54 265 -105 294 -101 31 4 47 69 54 221 3 73 11 131 17 136 7 6 57 1 129 -11
94 -17 117 -24 117 -38 0 -9 -25 -59 -56 -111 -77 -129 -119 -214 -138 -278
-17 -58 -21 -111 -8 -111 4 0 65 25 136 56 71 30 138 54 150 52 20 -3 21 -10
24 -100 2 -58 7 -98 13 -98 6 0 92 58 192 128 246 174 265 186 282 172 9 -8
12 -27 8 -68 -7 -77 12 -195 43 -262 25 -55 79 -120 99 -120 13 0 118 108 205
210 35 41 82 94 104 117 l39 42 23 -24 c13 -14 27 -25 31 -25 4 0 46 27 92 60
46 33 90 60 96 60 7 0 20 -9 31 -21 30 -33 183 -153 239 -187 28 -16 68 -36
91 -42 87 -26 109 22 98 217 -6 106 -5 125 7 121 8 -2 22 -37 32 -78 10 -41
23 -80 28 -87 23 -27 187 60 277 146 29 28 59 51 66 51 7 0 27 -22 44 -48 17
-26 58 -77 91 -113 l59 -64 17 40 c10 22 29 94 42 160 14 66 30 125 35 130 13
14 34 -16 54 -79 9 -28 30 -66 48 -84 34 -36 106 -82 129 -82 17 0 49 82 100
254 18 60 38 111 45 114 14 4 71 -115 117 -240 15 -43 31 -78 35 -78 3 0 44
68 90 150 45 83 87 149 93 147 6 -2 15 -17 19 -33 19 -68 58 -274 58 -307 0
-51 21 -52 82 -5 165 129 369 379 428 523 12 31 28 54 34 52 6 -2 13 -28 16
-58 6 -70 56 -138 81 -112 16 17 185 314 230 403 26 52 55 119 64 148 10 28
21 52 25 52 16 0 20 -51 20 -260 0 -118 4 -221 8 -227 25 -39 212 198 303 385
33 67 64 122 69 122 4 0 11 -19 15 -42 12 -76 80 -214 145 -295 56 -69 73 -75
135 -46 28 13 36 24 41 52 3 20 14 81 25 136 11 55 23 149 28 208 4 59 12 112
18 118 6 6 77 -29 209 -107 109 -64 210 -125 223 -135 36 -29 44 -14 38 65 -7
94 -34 174 -112 328 -36 70 -65 130 -65 134 0 3 16 3 35 0 70 -14 352 -98 419
-126 39 -17 72 -28 74 -25 3 2 -2 15 -10 27 -8 13 -18 50 -22 83 -14 128 -90
232 -290 397 -60 51 -104 94 -98 96 7 2 54 -13 104 -33 56 -22 94 -33 100 -27
22 22 -96 209 -232 364 -89 102 -104 128 -75 128 8 0 123 -45 255 -100 132
-55 247 -100 255 -100 26 0 26 22 1 124 -40 157 -97 225 -253 306 -66 33 -74
44 -46 54 12 5 210 24 266 26 26 1 -18 37 -220 183 -126 90 -239 171 -253 180
-19 13 -48 17 -136 17 -83 0 -114 4 -123 14 -17 20 -11 228 7 234 7 2 38 -21
69 -52 82 -80 203 -137 189 -88 -3 9 -21 80 -41 157 -40 151 -105 303 -170
393 -24 34 -34 57 -28 63 6 6 64 -1 156 -18 107 -19 151 -23 159 -15 23 23 -2
59 -87 122 -47 36 -85 68 -85 72 0 4 13 15 29 24 79 46 66 138 -30 216 -59 48
-63 49 -250 112 -122 41 -185 56 -244 60 -93 7 -140 18 -140 33 0 5 34 37 75
70 82 65 260 249 260 269 0 40 -340 54 -488 20 -45 -11 -85 -16 -90 -11 -4 4
-1 10 7 13 21 7 143 92 174 121 44 40 86 106 106 164 19 56 37 177 27 177 -4
0 -125 -50 -269 -111 -144 -61 -268 -114 -274 -116 -30 -12 -8 31 77 151 l91
127 -3 90 -3 90 -42 -36 c-62 -53 -165 -110 -278 -154 -106 -42 -175 -59 -175
-44 0 4 50 58 110 118 61 60 110 113 110 116 0 4 -56 4 -125 1 l-125 -5 0 42
c0 61 37 234 64 302 13 32 22 60 19 62 -8 9 -102 -28 -237 -92 -77 -37 -133
-58 -139 -52 -17 17 83 199 192 346 61 82 57 86 -61 56 -138 -35 -239 -90
-343 -186 -27 -25 -51 -41 -53 -35 -2 5 3 38 12 73 16 62 22 157 10 157 -3 0
-31 -22 -63 -50 -50 -43 -81 -61 -81 -46 0 3 17 37 37 78 28 55 38 88 41 135
7 104 -36 142 -169 147 -38 1 -71 5 -75 9 -3 3 4 23 17 44 21 33 24 50 24 135
0 53 -4 101 -10 107 -7 6 -52 -37 -130 -125 -139 -156 -182 -200 -191 -192 -3
4 9 39 26 79 18 40 35 90 38 112 l5 38 -39 -3 -39 -3 -7 83 c-9 105 -38 195
-90 272 l-39 60 -37 -16 c-124 -51 -205 -127 -265 -247 -20 -43 -42 -77 -47
-77 -6 0 -10 36 -10 84 0 47 -7 116 -15 155 -17 83 -78 246 -91 245 -17 -2
-146 -200 -194 -299 -27 -55 -65 -146 -86 -202 -21 -57 -41 -103 -45 -103 -4
0 -23 28 -41 62 -41 77 -141 185 -202 218 -25 13 -48 22 -51 19 -2 -3 -16 -61
-30 -130 -34 -169 -34 -169 -48 -169 -6 0 -25 23 -41 51 -83 148 -258 342
-399 443 -70 50 -215 136 -229 136 -5 0 -8 -52 -8 -115z m-2092 -1308 c2 -10
-3 -17 -12 -17 -10 0 -16 9 -16 21 0 24 23 21 28 -4z m6920 -4748 c-2 -6 -8
-10 -13 -10 -5 0 -11 4 -13 10 -2 6 4 11 13 11 9 0 15 -5 13 -11z"/>
</g>
</svg>
