<?xml version="1.0" standalone="no"?>
<!DOCTYPE svg PUBLIC "-//W3C//DTD SVG 20010904//EN"
 "http://www.w3.org/TR/2001/REC-SVG-20010904/DTD/svg10.dtd">
<svg version="1.0" xmlns="http://www.w3.org/2000/svg"
 width="1280.000000pt" height="640.000000pt" viewBox="0 0 1280.000000 640.000000"
 preserveAspectRatio="xMidYMid meet">
<metadata>
Created by potrace 1.15, written by Peter Selinger 2001-2017
</metadata>
<g transform="translate(0.000000,640.000000) scale(0.100000,-0.100000)"
fill="#000000" stroke="none">
<path d="M4746 5750 c-12 -31 -16 -77 -16 -198 -1 -131 -3 -153 -13 -134 -7
12 -22 29 -34 37 -20 14 -22 13 -28 -4 -3 -10 6 -54 20 -97 34 -107 33 -124
-5 -124 -40 0 -49 -35 -22 -90 l19 -40 -39 0 c-44 0 -56 -16 -38 -50 8 -16 9
-20 1 -16 -6 4 -20 25 -32 47 -11 22 -24 37 -28 34 -5 -2 -12 6 -15 19 -8 34
-94 120 -134 134 -31 11 -32 10 -32 -17 0 -35 38 -111 91 -180 23 -30 48 -70
55 -88 8 -18 19 -33 24 -33 6 0 10 -27 10 -60 0 -33 -4 -60 -8 -60 -4 0 -32
25 -62 56 -81 82 -130 104 -130 59 0 -31 -3 -31 -43 -1 -48 36 -117 68 -133
62 -8 -3 -14 -13 -14 -22 0 -11 -5 -14 -17 -9 -10 4 -54 11 -98 15 -44 5 -118
15 -165 24 -95 18 -146 20 -154 7 -10 -15 32 -43 73 -48 55 -8 60 -19 10 -26
-85 -11 -60 -31 49 -41 68 -5 237 -43 205 -45 -7 -1 -13 -5 -13 -10 0 -9 19
-14 98 -26 25 -4 42 -12 42 -20 0 -19 23 -25 93 -25 56 -1 60 -2 39 -13 -31
-17 -18 -27 37 -28 l46 -1 -39 -11 c-21 -7 -39 -16 -40 -22 0 -5 25 -19 56
-30 46 -17 54 -22 41 -31 -37 -23 25 -82 107 -99 l34 -7 -36 -19 c-20 -10 -39
-23 -42 -27 -8 -13 42 -57 94 -83 40 -21 148 -96 175 -122 6 -6 -9 -7 -42 -4
-64 7 -68 -5 -22 -58 36 -40 77 -65 109 -65 13 0 20 -5 18 -12 -3 -8 -27 -14
-61 -16 -31 -2 -57 -7 -57 -12 0 -5 14 -20 31 -33 l31 -24 -26 -39 -26 -39 27
-12 c16 -7 43 -12 61 -13 40 0 42 -16 2 -25 -35 -8 -64 -44 -54 -69 9 -22 52
-44 105 -52 24 -4 84 -27 133 -51 94 -45 149 -55 160 -27 4 12 21 -3 66 -57
32 -40 58 -74 57 -75 -1 -1 -36 2 -77 6 -41 5 -96 9 -122 10 -43 0 -48 -2 -48
-22 1 -39 37 -106 80 -145 l41 -38 -36 -19 c-43 -24 -44 -32 -2 -45 113 -35
170 -25 241 40 30 27 58 49 62 49 5 -1 45 -34 89 -74 l79 -74 -93 6 -92 5 16
-39 c9 -21 38 -62 66 -90 l50 -50 -63 7 c-35 4 -116 11 -180 15 -103 6 -118 5
-118 -9 0 -36 189 -169 259 -183 34 -7 167 -100 165 -115 -1 -5 -2 -27 -2 -49
-2 -36 -4 -40 -21 -31 -10 6 -37 14 -59 19 -38 9 -46 7 -124 -39 -46 -27 -93
-49 -105 -49 -22 0 -23 4 -23 66 l0 66 -26 -6 c-23 -6 -25 -4 -19 11 31 76 44
183 25 213 -8 12 -15 11 -54 -7 l-45 -22 -7 66 c-7 70 -28 103 -64 103 -16 0
-20 7 -20 34 0 44 -9 66 -26 66 -8 0 -14 10 -14 23 -1 43 -37 105 -78 131 -28
17 -56 51 -92 111 -28 47 -53 85 -56 85 -4 0 1 -27 13 -75 4 -14 -9 -7 -41 25
-25 24 -46 40 -46 35 0 -15 75 -150 110 -197 48 -66 189 -304 190 -320 0 -3
-23 0 -52 8 -94 24 -121 0 -74 -69 l24 -35 -29 10 c-35 12 -79 3 -79 -16 0
-22 33 -44 85 -57 28 -6 56 -17 64 -23 15 -12 121 -171 121 -182 0 -4 -25 -4
-56 -1 -63 7 -64 11 19 -82 44 -49 47 -55 30 -64 -10 -6 -19 -11 -21 -12 -2
-2 15 -46 38 -99 38 -90 39 -98 25 -119 -8 -13 -26 -29 -38 -34 -22 -10 -25
-8 -36 24 -13 35 -14 35 -58 29 -61 -8 -131 -41 -171 -79 l-34 -32 22 42 c42
81 20 231 -44 300 l-33 36 -16 -49 c-23 -72 -54 -137 -60 -127 -2 4 -8 24 -12
43 -9 45 -63 160 -75 160 -16 0 -25 -50 -25 -134 l1 -78 -53 56 c-47 51 -143
219 -132 231 3 2 39 -9 80 -25 40 -16 93 -29 117 -30 39 0 42 2 42 28 0 15 -9
42 -20 60 -24 39 -25 52 -5 52 47 0 74 31 128 143 46 94 87 195 87 212 0 3 -7
5 -15 5 -11 0 -15 12 -16 48 -1 43 -1 45 -11 20 -8 -23 -41 -44 -188 -117
l-178 -90 -6 51 c-5 38 -14 58 -36 78 -28 26 -29 32 -55 246 -14 120 -27 228
-28 239 -1 15 5 21 26 23 35 4 36 34 1 60 l-27 19 45 21 c24 12 52 22 62 22
53 0 109 56 163 164 32 63 37 81 41 169 l5 98 -39 -16 c-108 -44 -244 -166
-286 -255 l-25 -52 -31 86 c-28 78 -31 93 -25 165 3 43 3 95 -1 115 -6 31 -10
35 -25 27 -16 -9 -19 -3 -30 47 -26 118 -31 134 -45 123 -11 -9 -15 -3 -20 30
-4 22 -18 63 -31 90 -25 48 -38 56 -90 58 -63 2 -97 8 -105 20 -4 8 -15 11
-25 8 -11 -5 -54 22 -138 86 -67 52 -129 97 -137 102 -8 4 25 -33 75 -84 64
-65 86 -94 78 -102 -7 -7 -30 2 -79 34 -88 57 -136 77 -185 77 -31 0 -39 -4
-39 -19 0 -30 33 -63 124 -127 56 -39 80 -60 68 -62 -30 -5 -72 -24 -72 -32 0
-10 43 -24 138 -46 58 -13 72 -19 68 -31 -4 -9 -1 -22 5 -29 9 -11 8 -14 -5
-14 -19 0 -21 -23 -2 -39 7 -6 34 -14 59 -17 44 -6 45 -7 40 -38 -7 -43 12
-57 87 -63 68 -7 80 -17 136 -121 15 -30 39 -62 52 -72 18 -15 79 -140 68
-140 -2 0 -34 13 -72 28 -52 22 -70 34 -72 50 -4 25 -20 29 -28 7 -5 -12 -17
-14 -60 -9 -65 8 -68 0 -18 -52 35 -37 35 -39 24 -80 -9 -31 -18 -44 -36 -48
-28 -7 -30 -18 -9 -36 18 -15 20 -46 4 -56 -7 -4 -10 -1 -7 7 9 23 -11 49 -37
49 -22 0 -25 4 -25 40 0 31 -5 43 -24 55 -19 13 -25 28 -31 79 -5 50 -10 65
-25 69 -17 4 -17 9 -4 68 26 122 12 164 -35 102 l-20 -28 -1 35 c0 45 -13 66
-27 48 -24 -30 -35 -93 -31 -168 4 -74 4 -77 -12 -58 -16 21 -17 20 -29 -11
-18 -41 -10 -140 12 -156 12 -9 14 -14 5 -23 -9 -9 -9 -20 0 -45 16 -45 16
-45 -20 -49 -48 -4 -50 -38 -5 -72 19 -14 39 -26 44 -26 6 0 14 -20 17 -44 4
-24 15 -51 26 -61 14 -13 18 -25 13 -49 -6 -35 -22 -69 -23 -48 0 23 -19 12
-36 -20 -9 -18 -27 -43 -40 -55 -15 -14 -24 -33 -24 -53 0 -22 -5 -30 -18 -30
-23 0 -52 -30 -52 -53 0 -9 -4 -18 -8 -21 -7 -4 -72 287 -72 322 0 6 10 12 23
12 57 0 98 79 100 195 l2 80 -39 3 c-35 3 -43 -1 -88 -50 l-50 -53 6 55 c18
147 18 166 3 202 -14 34 -14 40 4 75 25 49 25 83 -1 90 -11 3 -20 6 -20 7 0 0
7 19 15 41 18 52 19 85 1 85 -11 0 -13 10 -9 42 6 38 5 41 -15 36 -17 -5 -22
-2 -22 13 0 10 -7 19 -15 19 -10 0 -15 -10 -15 -30 0 -16 -4 -30 -10 -30 -5 0
-10 -23 -10 -51 0 -44 -2 -50 -14 -40 -18 15 -31 -5 -41 -68 -6 -37 -9 -41
-17 -26 -15 26 -28 1 -28 -53 l0 -44 -34 39 c-127 143 -136 156 -136 203 0 70
-18 118 -61 165 -21 23 -39 48 -39 54 0 16 -47 96 -65 111 -12 10 -8 20 26 65
48 63 60 116 34 145 -10 11 -25 20 -34 20 -10 0 -2 13 22 38 45 46 47 68 7 90
-30 17 -38 36 -20 47 5 3 17 30 26 59 19 60 13 126 -11 126 -19 0 -19 17 0 70
17 48 20 130 5 130 -6 0 -4 12 4 28 20 38 11 212 -11 212 -9 0 -12 8 -8 23 3
12 1 29 -4 37 -16 24 -31 -1 -41 -67 -4 -32 -20 -96 -34 -142 -14 -45 -26 -94
-26 -109 -1 -26 -1 -26 -15 -8 -8 11 -18 17 -21 13 -10 -9 -10 -82 0 -172 l9
-80 -23 20 -22 20 3 -55 c3 -40 -1 -62 -14 -80 -19 -27 -21 -74 -8 -132 5 -21
5 -38 1 -38 -11 0 -20 27 -20 63 0 62 -9 77 -41 70 -25 -5 -29 -2 -29 16 0 30
-18 61 -35 61 -38 0 -62 23 -79 75 -20 63 -37 80 -84 80 -33 0 -36 2 -53 54
-20 58 -34 74 -60 66 -13 -4 -17 4 -21 40 -7 58 -31 95 -63 95 -14 0 -25 4
-25 9 0 5 -11 23 -25 40 -25 29 -29 31 -167 57 -15 3 -47 21 -72 40 -71 54
-73 40 -4 -38 88 -101 142 -152 209 -197 l58 -39 -60 5 c-60 6 -61 5 -50 -15
13 -24 82 -82 126 -105 17 -9 24 -16 17 -17 -23 0 -10 -16 51 -63 61 -48 61
-46 -5 -61 -39 -9 -35 -21 15 -53 37 -25 39 -28 20 -31 -50 -7 -19 -32 102
-81 86 -36 105 -46 64 -36 -22 5 -27 3 -32 -16 l-6 -23 -21 26 c-44 57 -120
84 -120 43 0 -19 -24 -20 -40 -1 -6 8 -32 23 -57 32 -43 17 -46 17 -58 0 -11
-14 -21 -16 -52 -10 -33 6 -36 5 -26 -8 11 -12 2 -14 -72 -10 -93 5 -115 -4
-115 -44 0 -14 -11 -32 -30 -46 -30 -22 -41 -63 -18 -70 9 -3 9 -11 -1 -35 -7
-17 -11 -46 -9 -64 5 -53 34 -51 85 7 l42 49 16 -22 c26 -37 51 -28 95 32 22
30 49 59 59 65 22 11 74 13 109 3 l24 -6 -28 -22 c-38 -30 -24 -45 42 -45 32
0 53 -4 49 -9 -6 -11 37 -45 109 -87 49 -28 49 -28 23 -37 -34 -11 -37 -45 -4
-51 12 -3 40 -9 62 -13 l40 -9 -42 -28 c-24 -16 -43 -34 -43 -42 0 -24 31 -43
81 -50 42 -6 47 -8 33 -19 -39 -28 12 -65 90 -65 50 0 62 -8 39 -25 -15 -11
-12 -15 23 -32 21 -11 62 -28 90 -37 28 -9 77 -38 110 -64 32 -26 74 -58 91
-70 28 -20 93 -100 93 -115 0 -2 -20 2 -45 11 -32 10 -50 23 -61 43 -19 39
-41 48 -95 42 l-45 -5 -10 57 c-10 63 -35 92 -84 97 -23 3 -25 -1 -28 -44 l-3
-46 -41 44 c-22 24 -44 44 -49 44 -18 0 -8 -66 16 -109 14 -24 24 -45 22 -47
-7 -8 -144 33 -206 61 -62 28 -63 29 -58 61 6 37 -8 100 -24 110 -6 3 -18 -1
-28 -10 -40 -37 -74 -14 -158 109 -27 38 -52 68 -58 67 -5 -1 -13 -16 -16 -34
-4 -18 -7 -28 -8 -23 -1 13 -54 45 -74 45 -10 0 -13 -8 -10 -24 3 -13 1 -26
-4 -29 -5 -3 -51 16 -103 43 -92 48 -155 64 -145 38 4 -10 -8 -12 -45 -10 -45
4 -50 2 -50 -17 0 -29 34 -48 119 -66 83 -17 91 -21 91 -39 0 -15 34 -30 90
-42 l35 -8 -30 -6 -30 -6 40 -12 c22 -7 54 -12 72 -12 45 0 48 -14 7 -29 -39
-14 -45 -31 -10 -31 18 0 23 -4 19 -18 -2 -10 5 -26 17 -37 17 -15 35 -18 103
-18 77 2 130 -11 100 -23 -7 -3 -26 -15 -44 -27 -76 -52 -65 -92 26 -92 58 1
75 11 103 62 7 11 15 11 48 -3 21 -9 50 -21 63 -26 18 -7 21 -12 13 -20 -23
-23 -11 -27 76 -30 l87 -3 -56 -17 c-65 -21 -94 -47 -84 -78 11 -35 64 -50
172 -50 l98 -1 -36 -19 c-35 -19 -57 -59 -44 -80 15 -24 130 -3 160 30 17 19
18 19 40 -13 17 -25 20 -38 13 -57 -19 -52 17 -94 60 -71 20 10 32 6 32 -12 0
-6 -27 -7 -67 -4 -38 3 -76 3 -87 -2 -17 -6 -15 -10 14 -34 41 -35 80 -51 174
-72 75 -17 202 -17 252 0 18 6 23 -1 43 -72 49 -167 69 -243 61 -238 -4 2 -10
18 -13 34 -9 41 -64 76 -161 101 -87 22 -132 25 -141 10 -8 -14 71 -97 119
-125 23 -12 65 -30 94 -40 28 -9 52 -21 52 -26 0 -5 -66 -9 -153 -8 -159 1
-250 -7 -242 -21 6 -10 236 -87 288 -96 l38 -6 -28 -27 c-15 -15 -45 -39 -66
-54 -73 -54 -121 -176 -74 -185 62 -12 167 57 167 109 0 19 8 28 35 38 19 7
49 24 65 38 l30 25 0 -80 c0 -60 4 -85 16 -96 18 -19 24 -19 57 -7 22 9 26 6
47 -40 22 -45 22 -50 7 -67 -24 -26 -47 -87 -57 -150 -5 -30 -12 -57 -14 -60
-11 -10 -326 183 -326 200 0 9 -119 147 -207 241 -15 15 -21 27 -15 27 22 0
12 18 -17 30 -58 24 -68 45 -79 171 -7 86 -15 127 -32 160 -13 25 -25 38 -28
31 -2 -8 -21 14 -42 50 -21 34 -49 74 -63 86 -25 24 -25 24 -32 3 -3 -11 -3
-25 0 -31 3 -5 3 -10 -2 -10 -4 0 -18 16 -31 34 -22 32 -74 66 -102 66 -7 0
-9 -8 -4 -22 l7 -22 -29 19 c-44 30 -116 65 -131 65 -10 0 -12 -7 -8 -19 5
-18 2 -18 -52 5 -53 22 -143 33 -143 18 0 -4 8 -13 18 -20 15 -12 9 -13 -41
-14 -98 0 -187 -31 -125 -43 15 -3 10 -5 -13 -6 -80 -3 -189 -60 -189 -98 0
-8 13 -13 33 -13 55 0 336 28 346 34 5 3 11 2 13 -4 1 -5 30 -15 63 -21 89
-17 89 -17 76 -33 -17 -21 8 -36 67 -38 29 -2 52 -6 52 -10 0 -5 -5 -8 -11 -8
-6 0 -9 -4 -7 -9 5 -14 195 -171 207 -171 18 0 22 -20 10 -54 -12 -33 -13 -33
-43 -21 -26 11 -32 11 -42 -3 -10 -14 -17 -14 -64 6 -65 27 -70 27 -70 1 l0
-20 -26 20 c-18 14 -34 18 -53 15 -18 -4 -41 1 -62 12 -19 10 -80 30 -137 44
l-103 27 28 -29 c15 -15 46 -37 69 -48 23 -12 45 -27 48 -35 3 -8 24 -19 47
-25 78 -21 92 -29 80 -44 -20 -24 20 -46 95 -53 l69 -6 -40 -12 -40 -12 35
-16 c19 -8 57 -18 84 -22 26 -4 43 -11 37 -15 -36 -22 46 -70 119 -70 21 0 42
-4 45 -10 4 -6 -5 -10 -19 -10 -14 0 -26 -5 -26 -11 0 -15 56 -35 150 -53 47
-9 117 -29 155 -46 39 -16 81 -30 95 -30 14 0 39 -10 55 -21 28 -20 28 -21 5
-14 -82 21 -460 53 -460 38 0 -15 32 -41 72 -57 43 -18 207 -56 243 -56 35 0
31 -12 -9 -34 -19 -10 -46 -31 -61 -46 l-26 -27 -46 24 c-26 12 -52 23 -60 23
-9 0 -11 8 -8 23 8 32 -12 46 -74 54 -41 5 -51 9 -51 24 0 11 -10 29 -21 40
-18 18 -30 21 -73 16 -46 -5 -53 -3 -62 16 -7 18 -17 22 -56 21 -43 0 -48 2
-48 23 0 29 -33 46 -75 39 -30 -6 -33 -4 -32 19 0 14 -4 29 -8 33 -3 4 -41 9
-83 12 -76 5 -77 6 -80 33 -4 35 -25 44 -57 23 -33 -22 -35 -21 -35 14 0 19
-5 30 -14 30 -7 0 -31 21 -52 48 -21 26 -45 52 -54 59 -21 17 -40 16 -40 -2 0
-19 -14 -19 -30 0 -18 22 -70 20 -71 -2 0 -13 -3 -11 -10 7 l-10 25 -17 -22
-17 -21 -82 20 c-45 12 -90 18 -100 14 -36 -15 36 -40 119 -43 42 -1 90 -8
105 -16 15 -8 43 -18 60 -22 32 -6 32 -7 17 -30 -22 -33 -10 -62 32 -77 18 -6
34 -18 34 -25 0 -17 -18 -16 -71 2 -43 15 -89 13 -89 -4 0 -9 72 -21 124 -21
18 0 37 -5 42 -10 10 -10 113 -31 218 -45 48 -7 48 -7 23 -20 -23 -12 -33 -11
-75 5 -70 27 -144 35 -172 20 -22 -12 -22 -14 -7 -25 10 -7 15 -19 11 -29 -6
-16 12 -22 58 -18 14 1 16 -4 11 -28 -5 -29 -5 -30 36 -30 37 0 41 -2 41 -25
0 -20 5 -25 25 -25 22 0 24 -2 15 -26 -26 -66 3 -94 51 -48 l29 28 0 -46 c0
-29 6 -53 16 -62 20 -21 27 -20 49 4 19 20 19 20 31 -8 26 -63 87 -91 124 -57
13 12 23 12 53 3 35 -11 37 -14 31 -41 l-6 -30 71 5 c39 3 71 2 71 -2 0 -4 -9
-15 -20 -25 -11 -10 -20 -26 -20 -37 0 -16 8 -18 64 -18 56 0 66 -3 71 -20 4
-11 23 -37 43 -57 24 -23 29 -32 15 -24 -22 11 -23 10 -23 -21 0 -18 9 -48 20
-65 l20 -33 -34 0 c-44 0 -66 -9 -66 -26 0 -9 12 -14 38 -15 32 0 34 -2 15 -9
-14 -6 -52 -4 -105 5 -46 8 -84 15 -85 15 0 0 1 17 3 38 6 50 -25 131 -58 155
-23 17 -32 19 -52 9 -14 -6 -28 -23 -32 -37 l-6 -26 -20 20 c-20 22 -58 28
-58 10 0 -6 -7 -9 -15 -5 -8 3 -15 2 -15 -2 0 -10 -53 -7 -71 4 -9 5 -24 27
-35 49 -12 25 -25 39 -35 38 -9 -2 -22 12 -33 38 -10 22 -25 43 -33 46 -21 8
-45 -26 -38 -54 3 -13 3 -23 -1 -23 -3 0 -42 20 -87 45 -44 25 -82 43 -85 40
-8 -8 29 -44 70 -67 21 -12 38 -25 38 -30 0 -4 -24 -8 -54 -8 -30 0 -57 -4
-60 -9 -8 -13 25 -38 62 -46 18 -4 30 -11 27 -15 -9 -14 27 -28 93 -36 61 -6
61 -7 39 -24 -19 -16 -37 -17 -154 -13 -83 4 -133 2 -133 -4 0 -18 56 -62 97
-77 68 -24 196 -39 298 -34 74 3 92 1 84 -9 -16 -19 -1 -33 36 -33 l33 0 -19
-38 -20 -37 49 -3 c72 -4 152 25 177 65 19 31 23 32 60 27 48 -8 51 -10 36
-28 -9 -11 -7 -15 14 -20 14 -4 30 -4 35 -1 6 4 10 4 10 1 0 -3 -16 -13 -36
-22 -36 -17 -64 -57 -50 -72 13 -13 132 -5 187 13 30 9 74 28 97 42 43 24 44
24 37 4 -5 -17 -2 -21 16 -21 17 0 19 -3 10 -14 -7 -9 -39 -15 -86 -18 -40 -2
-77 -7 -81 -11 -14 -14 14 -29 67 -35 52 -7 52 -7 26 -21 -54 -29 -42 -83 21
-100 55 -15 189 9 206 38 4 6 27 8 55 4 46 -5 51 -3 92 34 32 30 58 44 97 52
63 13 88 25 123 58 l27 24 23 -38 c13 -21 32 -56 42 -78 10 -22 29 -54 43 -72
31 -41 31 -50 -1 -24 -40 30 -275 77 -275 54 0 -15 50 -62 100 -96 32 -21 38
-28 20 -23 -53 13 -162 28 -167 22 -3 -3 6 -21 21 -40 21 -29 36 -36 83 -46
105 -20 118 -24 118 -45 0 -18 -6 -20 -53 -17 -49 2 -60 8 -119 58 -72 62
-124 88 -154 79 -25 -8 -24 -32 2 -74 l20 -34 -73 9 c-76 9 -133 9 -279 -1
l-87 -6 5 44 c9 73 -31 127 -92 127 -29 0 -49 -37 -43 -82 5 -31 -6 -38 -63
-38 -32 0 -39 -3 -39 -19 0 -37 -21 -32 -76 18 -95 87 -242 145 -273 107 -11
-13 -9 -22 12 -58 28 -48 64 -78 150 -124 l58 -31 -58 -12 c-39 -7 -59 -8 -61
-1 -2 5 -31 10 -64 10 -54 0 -59 2 -53 20 9 29 -4 86 -27 110 -16 17 -29 21
-62 18 -22 -3 -49 -8 -59 -12 -14 -7 -17 -3 -17 26 0 63 -84 168 -135 168 -25
0 -35 -30 -35 -106 l0 -44 -60 0 -60 0 0 33 c0 47 -19 107 -36 114 -8 3 -25
-4 -37 -15 -12 -11 -37 -22 -55 -24 -27 -4 -39 2 -73 34 -43 41 -59 47 -59 23
0 -12 -8 -10 -37 10 -21 14 -50 25 -66 25 -16 0 -36 4 -46 10 -10 5 -35 6 -56
3 l-38 -6 25 -13 c25 -13 45 -54 27 -54 -6 0 -36 13 -67 29 -44 23 -76 31
-145 37 -84 7 -87 6 -87 -15 0 -30 67 -101 115 -121 l40 -17 -91 -5 c-149 -9
-148 -19 9 -68 l97 -31 -17 -25 c-14 -22 -14 -27 -2 -35 22 -16 191 -4 228 16
18 9 44 15 59 13 l27 -3 -29 -27 c-42 -38 -23 -58 53 -58 78 0 88 -10 46 -43
-26 -20 -45 -27 -79 -27 -26 0 -51 -6 -59 -15 -9 -8 -47 -19 -86 -25 -187 -26
-126 -93 82 -91 l108 1 -20 -26 c-26 -33 -26 -39 -1 -64 28 -28 94 -26 146 3
l40 24 -4 -30 c-5 -30 -4 -30 32 -24 45 7 126 47 139 68 6 9 19 14 31 12 23
-5 59 8 93 33 20 14 19 11 -8 -39 -33 -62 -28 -73 29 -62 49 9 78 29 98 68 15
29 18 30 24 12 7 -19 9 -18 38 13 17 19 33 28 37 22 13 -21 59 -10 91 21 23
23 44 33 71 34 21 2 73 11 116 20 44 9 81 14 84 12 2 -3 -3 -19 -12 -36 -14
-29 -14 -32 0 -38 9 -3 42 -3 74 0 57 6 58 6 54 -17 -7 -36 26 -49 108 -44 82
4 99 17 128 97 11 32 21 61 21 64 0 3 -15 9 -32 13 -33 8 -32 8 17 15 28 4 92
8 144 8 l94 1 -34 -23 c-32 -21 -79 -80 -79 -98 0 -12 69 -11 152 1 65 9 113
3 113 -16 0 -10 37 -11 165 -4 l85 5 -3 -72 c-2 -49 0 -73 8 -73 26 0 88 34
121 66 l37 36 -5 -46 -6 -46 49 -2 c27 -1 59 -1 72 0 12 0 20 -3 17 -9 -4 -5
-13 -9 -20 -9 -8 0 -30 -14 -50 -31 -47 -42 -45 -73 5 -77 29 -2 51 8 124 58
101 69 111 68 104 -20 -4 -43 -2 -50 13 -50 10 0 21 -5 24 -10 9 -14 58 -12
79 3 10 7 30 35 44 62 34 62 49 67 44 16 -3 -32 -14 -50 -54 -90 -27 -28 -48
-56 -46 -63 5 -16 127 -31 178 -22 19 3 45 12 56 19 20 13 22 12 27 -14 6 -29
32 -45 91 -56 53 -10 80 0 101 39 l18 33 37 -38 c30 -31 44 -39 73 -39 20 0
48 5 62 12 24 11 74 79 94 128 8 21 10 16 10 -32 1 -64 -2 -63 94 -58 35 1 38
0 32 -19 -5 -16 -1 -22 18 -26 68 -17 361 53 489 116 21 11 49 19 64 19 54 0
211 33 255 54 34 16 45 18 41 8 -7 -20 16 -32 68 -33 45 -1 45 -1 -36 -27 -45
-15 -92 -34 -105 -43 l-24 -16 40 -7 c24 -4 69 -1 113 9 40 8 91 15 113 15 37
0 39 -2 33 -24 -5 -23 -3 -25 49 -31 69 -9 122 7 144 43 9 15 18 29 19 31 2 2
15 -6 30 -18 34 -27 78 -27 97 -1 14 20 14 20 30 -4 9 -13 37 -32 62 -41 57
-22 92 -10 101 35 4 16 8 30 9 30 2 0 25 -11 52 -25 52 -27 189 -65 235 -65
25 0 28 3 28 33 0 19 -7 56 -15 82 -8 27 -13 50 -12 52 2 1 25 -6 53 -16 27
-11 65 -21 84 -22 30 -3 35 -1 38 18 3 18 7 20 20 13 9 -5 43 -12 74 -15 48
-5 57 -10 60 -28 3 -24 31 -35 99 -36 53 -1 64 8 83 70 l14 44 -5 -49 -6 -49
106 8 c59 4 107 3 107 -2 -1 -4 -14 -24 -30 -43 -17 -19 -30 -45 -30 -57 0
-22 2 -23 103 -23 152 0 258 33 324 100 l30 31 54 -37 c60 -41 118 -68 168
-79 l33 -7 -4 115 c-3 115 -3 116 17 97 38 -35 102 -60 176 -70 93 -12 349
-13 368 -1 19 12 6 57 -26 87 -14 13 -48 32 -77 43 l-51 19 162 -2 c154 -1
162 0 185 22 32 29 121 31 176 3 61 -31 180 -62 258 -68 62 -5 74 -3 80 11 16
42 -53 92 -146 105 l-45 6 34 22 c28 17 39 19 58 10 18 -8 31 -7 58 6 19 9 35
21 35 27 0 21 18 9 25 -17 10 -41 53 -110 87 -138 36 -30 67 -32 102 -4 l26
20 26 -20 c56 -44 114 -16 114 55 0 34 -25 145 -45 196 -6 15 0 14 36 -6 38
-21 164 -62 376 -124 58 -16 123 -11 161 14 12 8 22 13 22 11 0 -3 -14 -35
-31 -72 -16 -37 -27 -70 -24 -74 4 -3 55 -6 114 -6 135 0 187 22 241 103 21
33 41 52 53 52 15 0 18 -5 13 -22 -18 -66 -19 -109 -1 -128 40 -44 95 -10 95
59 l0 35 23 -44 c23 -47 72 -82 112 -82 18 0 24 -7 29 -31 14 -71 65 -86 114
-36 30 31 44 55 75 131 l15 37 37 -35 c50 -46 134 -94 167 -94 21 0 28 6 33
31 11 47 -4 133 -31 186 -13 26 -24 49 -24 49 0 1 69 4 153 7 83 3 171 11 194
17 60 17 93 51 93 95 l0 35 -162 0 c-144 0 -330 -17 -395 -36 -37 -10 -27 1
42 52 36 26 65 55 65 64 0 15 6 15 58 5 31 -7 61 -10 66 -7 14 8 0 79 -24 117
-42 68 -325 245 -392 245 -18 0 -28 5 -28 14 0 23 41 46 80 46 20 0 45 7 56
15 10 8 15 15 10 15 -5 0 -3 7 4 15 7 8 28 15 46 15 24 0 34 5 34 15 0 8 8 15
18 15 10 0 27 7 38 15 16 13 17 16 4 25 -10 7 19 10 97 10 110 0 143 5 143 20
0 13 -90 40 -155 47 -33 3 -67 9 -74 13 -8 5 6 6 32 3 32 -4 62 0 91 11 94 36
77 66 -40 74 l-75 5 22 23 c14 15 23 42 29 86 4 35 6 65 4 66 -1 2 -18 -11
-38 -28 -20 -18 -45 -40 -57 -48 -20 -14 -20 -13 4 29 13 24 30 61 36 81 20
63 28 62 126 -9 104 -75 157 -102 202 -103 36 0 63 29 63 67 0 31 -50 84 -106
112 l-47 24 60 22 c108 39 173 92 173 141 0 23 -1 24 -62 16 -76 -9 -100 -8
-296 3 -84 4 -155 11 -157 15 -2 3 7 25 21 47 23 40 25 41 61 32 62 -14 274
-11 328 5 106 32 129 117 44 162 l-31 15 45 48 c57 61 72 90 91 180 13 64 21
80 58 118 l43 44 -39 -16 -38 -16 6 36 7 36 -35 -38 c-30 -32 -36 -35 -36 -18
0 18 -2 18 -20 -5 -18 -24 -25 -25 -137 -28 -65 -2 -146 -1 -180 3 -57 6 -63
9 -63 30 0 22 -1 22 -42 8 -22 -8 -47 -12 -53 -9 -9 3 -14 46 -18 138 -3 87
-12 159 -25 208 -11 41 -19 76 -18 77 1 1 20 -4 41 -12 72 -25 78 -22 73 36
-3 29 -14 62 -27 79 l-21 29 22 12 c13 7 39 25 59 40 34 27 41 28 101 22 61
-5 65 -4 71 16 13 51 -25 114 -98 166 l-44 31 67 45 c72 47 122 116 143 194
12 41 9 179 -4 191 -3 4 -30 -17 -59 -47 -56 -58 -114 -91 -245 -139 -54 -21
-93 -43 -115 -65 l-33 -34 -55 18 c-48 16 -58 24 -85 69 -44 75 -55 83 -55 41
0 -64 -9 -79 -45 -79 -36 0 -41 -8 -44 -68 -1 -35 13 -70 36 -87 12 -9 11 -18
-6 -55 -11 -25 -21 -39 -21 -33 0 7 -16 31 -36 52 -27 31 -52 46 -115 66 -67
23 -85 34 -116 71 -21 24 -41 44 -45 44 -14 0 -9 -198 6 -234 19 -46 71 -74
167 -91 151 -27 102 -34 -66 -10 -134 20 -255 20 -255 1 0 -16 -57 -23 -222
-29 -87 -3 -96 -1 -88 13 5 9 17 23 26 31 53 43 67 190 35 359 -12 63 -27 130
-33 148 l-10 33 -24 -26 c-13 -14 -24 -30 -24 -35 0 -5 -13 -30 -30 -56 -54
-86 -64 -132 -58 -283 3 -75 4 -141 1 -148 -2 -7 -29 4 -71 29 -37 22 -69 42
-71 44 -2 2 8 8 22 13 41 16 58 62 63 170 3 53 6 115 8 138 l3 42 -31 -33
c-17 -18 -75 -65 -129 -105 -55 -40 -106 -86 -115 -102 -25 -43 -47 -38 -49
10 -3 65 -44 132 -107 175 -49 33 -56 33 -56 -5 0 -16 -4 -28 -8 -25 -5 3 -22
-2 -38 -10 -19 -10 -30 -12 -32 -5 -2 6 -8 9 -13 5 -17 -10 -9 7 16 34 36 39
67 126 71 202 1 36 9 101 15 146 7 44 10 88 6 97 -10 26 -46 5 -105 -63 -48
-54 -53 -57 -109 -64 -32 -3 -95 -14 -141 -23 -45 -9 -85 -13 -88 -10 -3 3 13
22 35 42 72 65 151 221 151 297 0 38 -32 38 -93 -3 -45 -29 -137 -125 -137
-141 0 -5 -8 -8 -17 -8 -14 0 -13 4 7 25 32 34 14 55 -46 55 -24 0 -44 4 -44
8 0 4 16 23 35 42 39 37 43 50 19 50 -14 0 -16 8 -10 48 18 134 18 169 1 293
-11 71 -21 129 -24 129 -16 0 -50 -75 -71 -155 -13 -49 -25 -92 -26 -94 -1 -1
-21 12 -44 30 -58 46 -65 35 -62 -101 1 -61 0 -110 -3 -110 -4 0 -15 5 -26 10
-25 14 -55 -2 -63 -34 -6 -24 3 -80 18 -117 6 -13 2 -16 -18 -12 -23 5 -26 2
-26 -24 0 -45 28 -143 51 -174 16 -23 17 -29 6 -29 -19 0 -27 -30 -27 -102 0
-51 -2 -58 -19 -58 -33 0 -34 -17 -4 -110 21 -68 32 -90 46 -90 15 0 17 -11
18 -92 0 -51 6 -126 13 -165 7 -40 12 -73 11 -73 -1 0 -17 7 -35 16 -48 25
-169 54 -222 54 l-47 0 9 -32 c31 -106 223 -270 316 -270 18 0 37 2 42 6 4 3
18 -15 30 -39 12 -24 43 -68 70 -98 47 -52 49 -56 55 -132 4 -48 3 -83 -3 -89
-5 -5 -11 -8 -13 -5 -2 2 -45 58 -96 124 -51 66 -97 121 -101 123 -17 6 -53
-132 -46 -172 9 -49 71 -110 134 -132 l50 -18 -76 -84 -76 -84 -9 33 c-16 60
-119 134 -214 154 -30 6 -33 5 -33 -19 0 -23 -4 -26 -32 -26 -41 0 -119 -36
-180 -83 l-47 -36 -7 35 c-4 24 0 49 15 84 25 57 26 76 7 87 -23 13 -7 60 31
89 19 14 43 40 54 58 23 38 26 114 4 122 -11 5 -6 16 24 52 45 55 71 103 71
132 0 20 -1 20 -37 5 -57 -23 -137 -114 -180 -205 -21 -44 -44 -81 -50 -84 -7
-3 -20 9 -29 26 l-16 31 74 71 c41 39 86 87 100 106 25 35 42 80 30 80 -34 0
-101 -33 -186 -89 -109 -73 -146 -95 -151 -89 -2 2 12 28 32 59 34 52 39 55
114 78 123 37 249 109 249 143 0 17 -84 7 -171 -21 l-92 -30 39 40 c21 21 47
39 59 39 11 0 27 5 35 10 13 8 12 10 -2 10 -39 0 -13 23 70 63 65 31 81 42 65
45 -13 2 -23 9 -23 16 0 7 27 53 60 103 35 50 62 102 63 119 2 29 2 29 -61 32
l-62 3 24 32 c18 24 26 51 31 105 8 79 2 87 -43 56 -31 -21 -29 -5 8 96 34 93
40 156 14 146 -14 -5 -16 -1 -10 26 23 111 16 158 -24 158 -16 0 -20 7 -20 33
l-1 32 -14 -25 c-14 -24 -14 -24 -8 12 3 20 2 57 -1 82 -6 38 -10 45 -28 43
-18 -2 -25 11 -49 78 -16 45 -27 65 -24 45 3 -19 8 -101 11 -181 l7 -146 -59
1 c-53 1 -59 -1 -62 -21 -2 -12 11 -56 27 -98 29 -71 31 -86 31 -197 0 -117
-1 -120 -18 -105 -22 20 -62 22 -63 5 -2 -23 2 -72 7 -90 4 -12 0 -15 -14 -11
-17 4 -20 -3 -26 -51 -4 -30 -5 -75 -1 -98 3 -25 -1 -80 -10 -128 -9 -47 -18
-108 -22 -136 l-6 -52 28 6 c15 2 26 1 24 -4 -40 -91 -60 -114 -154 -171 l-94
-58 63 -3 64 -3 -25 -44 c-13 -25 -29 -48 -35 -51 -5 -3 -40 15 -76 40 -66 45
-67 46 -74 24 -3 -13 -6 -44 -7 -69 -1 -55 19 -84 66 -96 l31 -8 -54 -80 c-30
-44 -75 -119 -98 -168 -39 -78 -45 -85 -57 -70 -19 22 -132 73 -164 73 -14 0
-25 3 -25 8 1 15 26 39 38 35 6 -3 12 2 12 11 0 8 31 60 70 115 38 55 96 140
127 188 32 48 82 110 111 137 49 45 53 53 49 83 -5 26 2 45 29 90 23 39 34 69
34 96 0 27 12 61 36 104 29 51 33 67 24 79 -7 7 -19 14 -28 14 -13 0 -13 2 2
18 11 14 18 43 21 102 3 65 8 87 24 104 27 29 42 71 30 83 -7 7 4 30 30 68 48
69 51 90 14 100 -51 12 -53 19 -53 154 l0 126 -59 -60 -59 -60 10 -68 c12 -80
-2 -111 -54 -122 -41 -9 -68 -32 -68 -58 0 -35 23 -87 40 -87 12 -1 12 -2 -2
-11 -12 -7 -18 -22 -18 -46 0 -29 -3 -34 -12 -25 -23 23 -28 12 -28 -60 0 -72
0 -72 -17 -48 -16 22 -18 45 -15 180 l4 155 -47 -65 c-25 -36 -48 -76 -51 -90
-27 -117 -41 -139 -98 -144 -48 -4 -61 -21 -77 -94 -10 -51 -13 -54 -25 -38
-13 18 -14 18 -24 -8 -5 -15 -11 -52 -12 -84 -1 -31 -7 -60 -12 -64 -7 -5 -10
-68 -9 -178 1 -161 0 -170 -17 -165 -22 7 -32 -7 -39 -54 -4 -23 -12 -35 -25
-37 -33 -5 -38 -19 -23 -62 14 -40 14 -42 -5 -42 -14 0 -19 -6 -16 -22 2 -15
27 -39 73 -71 38 -26 74 -52 79 -57 11 -11 -121 -150 -267 -282 l-78 -71 -39
22 c-43 24 -154 51 -211 51 -34 0 -37 2 -44 38 -4 20 -15 51 -26 68 -10 17
-19 34 -19 37 0 3 26 -3 58 -14 74 -26 188 -35 222 -17 29 16 55 78 46 113 -5
20 -13 25 -39 26 l-32 1 27 11 c54 25 98 82 98 129 0 13 7 41 15 63 19 54 18
72 -5 95 -20 20 -20 20 1 55 12 19 25 35 30 35 5 0 9 5 9 10 0 6 -11 10 -25
10 -43 0 -27 15 17 17 24 1 47 8 53 16 8 11 23 14 58 10 l47 -6 0 45 c0 47
-38 114 -80 140 -28 18 -25 25 13 32 52 10 89 55 95 116 6 60 1 61 -85 20 -58
-27 -133 -48 -133 -38 0 17 24 68 31 68 5 0 27 16 50 37 40 36 78 93 99 147
l10 28 -37 -4 c-21 -3 -45 -8 -54 -12 -13 -6 -12 10 10 109 l26 116 47 34 c25
19 49 43 52 53 11 33 -3 52 -38 52 -18 0 -35 2 -38 5 -3 3 1 31 8 63 19 77 18
122 -1 122 -8 0 -15 -5 -15 -12 0 -6 -3 -9 -6 -5 -3 3 1 27 10 54 8 26 18 68
22 93 l7 45 -22 -19 -21 -19 0 65 c0 38 -5 72 -13 83 -13 17 -14 17 -29 -4
-16 -22 -16 -21 -27 29 -6 28 -11 57 -11 65 0 8 -5 37 -11 65 -18 85 -34 47
-33 -80 0 -68 -3 -107 -9 -103 -6 4 -7 -12 -3 -43 17 -123 18 -142 7 -148 -7
-5 -5 -19 9 -46 11 -22 20 -54 20 -72 -1 -32 -1 -32 -17 -13 -14 19 -15 14 -9
-65 3 -47 9 -129 12 -182 l7 -97 -48 15 c-34 10 -52 11 -59 4 -16 -16 21 -75
59 -96 30 -16 32 -20 23 -46 l-11 -30 -17 39 c-18 40 -62 86 -92 96 -15 5 -18
1 -18 -26 1 -47 35 -115 68 -134 l29 -17 -33 -70 c-30 -62 -32 -70 -17 -81 44
-33 -78 -20 -147 15 -56 29 -104 24 -108 -10 -2 -17 6 -34 23 -50 19 -18 25
-33 25 -67 0 -25 -5 -43 -11 -43 -7 0 -56 7 -111 16 -55 9 -102 14 -104 11 -3
-2 13 -26 34 -53 57 -74 57 -76 -5 -38 -43 26 -59 31 -61 21 -3 -15 20 -118
33 -151 7 -16 5 -18 -11 -12 -10 4 -43 10 -71 13 -64 7 -67 -2 -24 -69 31 -49
94 -87 147 -89 16 -1 40 -4 53 -8 21 -6 22 -8 8 -20 -13 -10 -27 -11 -67 -2
-28 6 -102 11 -165 11 l-114 0 14 41 c19 52 19 59 0 59 -11 0 -12 5 -5 24 17
46 30 143 22 166 -8 21 -12 18 -71 -46 -73 -80 -114 -136 -128 -180 -6 -18
-43 -65 -82 -105 -69 -72 -71 -73 -47 -29 22 40 60 159 53 166 -4 4 -197 -53
-240 -71 -20 -8 -39 -15 -43 -15 -3 0 -4 62 -2 138 5 155 31 267 58 256 8 -4
52 -11 97 -17 96 -13 133 -2 133 36 0 20 6 25 38 31 20 3 55 6 76 6 22 0 37 2
35 5 -3 2 -61 16 -129 30 -68 15 -132 32 -141 39 -16 11 -14 16 23 60 22 26
65 61 94 78 30 16 54 34 54 38 0 5 -24 2 -52 -6 -90 -24 -94 -20 -48 37 23 29
61 65 86 81 45 31 69 61 60 77 -9 15 27 38 85 55 96 27 148 100 77 108 -39 5
-29 10 66 34 111 29 172 84 101 93 -29 3 -28 4 23 27 53 23 62 44 18 44 -12 0
-23 6 -23 14 0 10 27 15 112 18 77 4 122 11 148 23 61 29 41 40 -69 39 -54 0
-92 1 -84 4 8 2 41 34 72 70 l57 67 -41 3 c-48 4 -117 -20 -158 -54 l-28 -24
-7 29 c-6 27 -31 59 -39 50 -1 -2 -8 -29 -14 -60 -15 -79 -48 -144 -91 -179
-52 -44 -64 -40 -56 18 6 47 6 46 -46 -51 -49 -90 -54 -96 -70 -82 -26 24 -66
9 -121 -46 -38 -38 -48 -44 -48 -28 0 16 -3 17 -19 7 -24 -14 -50 -59 -67
-112 -8 -25 -13 -33 -13 -20 -1 12 -9 32 -20 45 -16 20 -22 22 -44 12 -16 -8
-27 -23 -31 -46 -6 -32 4 -131 22 -215 4 -20 5 -50 2 -67 -6 -29 -6 -29 -12
11 -11 79 -55 141 -81 115 -5 -5 -10 -48 -11 -95 -1 -79 -2 -85 -20 -80 -10 4
-16 2 -13 -3 4 -6 -22 -8 -67 -5 -70 4 -75 3 -90 -21 -15 -22 -15 -29 -3 -59
8 -19 29 -47 48 -62 30 -25 39 -28 91 -24 32 2 58 4 58 4 0 -1 -9 -24 -19 -52
-16 -41 -21 -90 -27 -248 -4 -108 -11 -199 -16 -202 -4 -3 -6 -10 -3 -15 4 -5
17 -53 30 -107 13 -53 27 -106 31 -117 5 -11 -7 -3 -26 18 -42 48 -102 79
-143 75 -26 -2 -33 -8 -35 -30 -2 -15 6 -48 17 -73 l20 -46 -37 29 c-20 17
-50 44 -65 60 l-29 30 30 7 c25 5 31 12 36 43 7 47 6 154 -2 211 -7 43 -8 44
-25 27 -31 -32 -59 -98 -71 -170 l-12 -71 -118 148 -118 148 25 57 c14 31 28
76 32 100 6 36 10 42 23 35 10 -4 47 -8 83 -8 57 0 72 4 108 30 41 28 91 88
91 110 0 6 -40 9 -110 7 -109 -3 -133 4 -85 26 83 38 100 326 24 418 -16 20
-48 4 -57 -30 -5 -17 -32 -93 -61 -168 -28 -75 -51 -153 -51 -173 0 -20 -7
-43 -15 -51 -8 -9 -15 -28 -15 -44 0 -26 -3 -28 -40 -28 -48 -1 -50 9 -16 76
32 64 46 117 47 190 2 73 -18 112 -56 112 -31 0 -31 9 0 98 16 47 25 93 25
134 0 46 7 78 25 116 29 62 32 84 10 76 -8 -4 -17 1 -21 10 -8 21 -27 20 -47
-2 -26 -28 -87 -160 -87 -186 0 -13 -7 -29 -14 -36 -16 -12 -33 -85 -39 -160
-3 -34 -4 -28 -5 23 -2 65 -3 67 -28 67 -21 0 -25 3 -19 18 29 70 45 127 45
162 0 38 -2 40 -30 40 -37 0 -50 27 -50 105 0 47 3 56 28 73 26 19 72 96 72
121 0 6 -15 11 -33 11 l-34 0 19 108 c23 131 18 186 -26 272 -19 36 -41 91
-50 122 -9 31 -20 59 -25 62 -5 3 -16 -12 -25 -34z m-108 -775 c-3 -3 -9 2
-12 12 -6 14 -5 15 5 6 7 -7 10 -15 7 -18z m4281 -135 c-11 -30 -24 -36 -46
-22 -14 9 -6 24 22 40 31 18 35 14 24 -18z m-27 -125 c-5 -28 -12 -31 -30 -13
-9 9 -7 14 6 24 25 19 30 17 24 -11z m120 -161 c10 -10 39 -19 72 -22 l54 -4
-10 -30 c-9 -24 -14 -28 -32 -23 -11 4 -40 10 -63 12 -42 5 -43 4 -43 -23 0
-40 32 -89 80 -120 22 -15 39 -29 36 -31 -2 -2 -34 8 -72 22 -39 15 -84 25
-104 23 -32 -3 -35 -6 -38 -38 -4 -47 31 -99 83 -125 30 -15 60 -20 118 -20
l78 1 -6 -41 c-7 -50 -46 -239 -50 -243 -8 -9 -106 51 -130 80 l-28 33 5 -85
c5 -96 32 -163 73 -182 l24 -11 -27 -53 c-14 -30 -31 -53 -37 -51 -5 2 -21 23
-35 48 -22 40 -26 58 -30 186 -4 112 -9 146 -21 158 -15 15 -18 14 -42 -14
-14 -17 -27 -36 -30 -43 -6 -18 -8 -15 -55 92 -22 52 -44 118 -47 147 -6 47
-5 53 17 65 13 7 44 36 70 63 47 52 87 145 123 288 24 95 27 97 39 25 6 -38
19 -75 28 -84z m-206 -116 c-14 -30 -37 -65 -51 -78 l-25 -23 0 37 c0 32 7 44
48 81 26 24 48 42 50 40 2 -2 -8 -27 -22 -57z m-1165 -166 c21 -102 17 -127
-25 -138 -31 -7 -46 -64 -46 -173 l0 -81 -55 0 c-30 0 -55 2 -55 5 0 3 11 28
25 55 21 42 25 63 25 145 0 63 -4 95 -11 95 -7 0 -5 9 5 23 60 82 86 129 97
177 13 52 14 53 17 20 1 -19 12 -77 23 -128z m1809 25 l0 -54 -30 5 c-16 2
-30 6 -30 8 0 1 11 15 25 30 14 15 25 35 25 45 0 11 2 19 5 19 3 0 5 -24 5
-53z m-126 -84 c32 -62 127 -123 191 -123 19 0 35 -3 35 -6 0 -3 -12 -25 -26
-50 -53 -90 -144 -141 -284 -158 l-55 -7 40 19 c68 33 92 72 110 175 3 20 3
37 -1 37 -4 0 -29 -21 -56 -46 -27 -25 -51 -44 -53 -42 -2 2 3 37 11 78 8 41
14 87 14 102 0 26 21 47 47 48 7 0 19 -12 27 -27z m1768 -92 c-17 -60 -42 -94
-58 -79 -3 4 1 25 10 48 9 22 16 54 16 70 0 22 5 29 23 32 12 2 23 1 24 -2 2
-3 -5 -34 -15 -69z m-4209 34 c-20 -41 -27 -41 -54 3 l-21 32 46 0 46 0 -17
-35z m4304 -27 c-3 -8 -6 -5 -6 6 -1 11 2 17 5 13 3 -3 4 -12 1 -19z m-4207
-11 c0 -7 -9 -18 -20 -25 -18 -11 -19 -10 -8 13 12 26 28 34 28 12z m2704
-123 c21 -25 48 -50 61 -56 15 -7 25 -23 31 -52 7 -32 16 -44 41 -57 l31 -16
-59 -74 c-32 -41 -62 -74 -66 -74 -5 0 -32 9 -60 19 -53 20 -53 20 -47 57 7
43 -1 50 -47 40 -18 -4 -95 -2 -169 4 l-135 11 60 13 c124 27 199 79 267 184
16 26 35 47 42 47 6 0 29 -21 50 -46z m849 -114 c31 -14 57 -27 57 -30 0 -3
-25 -18 -56 -33 -31 -16 -54 -33 -51 -40 5 -18 65 -36 123 -36 l51 -1 7 -41
c7 -44 52 -99 80 -99 23 0 20 -8 -21 -59 l-38 -46 -5 70 c-5 66 -7 70 -30 73
-58 6 -99 -43 -126 -153 -7 -28 -8 -27 -14 20 -12 92 -47 139 -87 116 -14 -7
-29 1 -71 40 -29 27 -58 49 -63 49 -26 0 -3 20 39 34 66 22 132 98 132 151 0
9 4 15 8 13 5 -1 34 -14 65 -28z m477 24 c0 -9 -57 -89 -74 -103 -32 -27 -17
20 22 64 34 41 52 54 52 39z m-7010 -52 c-38 -6 -70 7 -70 28 0 19 1 19 46 -3
39 -18 43 -23 24 -25z m7114 -80 c-14 -15 -30 -46 -37 -69 l-11 -43 -56 0
c-30 -1 -74 -5 -97 -9 -46 -9 -57 1 -20 20 32 17 166 149 184 183 l15 29 24
-42 24 -42 -26 -27z m-274 4 c0 -7 -9 -24 -19 -38 -11 -14 -18 -33 -15 -44 2
-10 0 -25 -5 -33 -7 -11 -19 -3 -53 33 -25 26 -42 48 -39 50 3 1 27 9 54 16
26 7 50 17 53 21 8 14 24 11 24 -5z m-895 -6 c3 -5 -1 -10 -9 -10 -9 0 -16 5
-16 10 0 6 4 10 9 10 6 0 13 -4 16 -10z m-5868 -67 c63 -14 72 -18 77 -42 3
-14 9 -110 12 -213 l7 -186 -49 24 c-61 30 -196 64 -208 53 -26 -23 120 -181
204 -222 64 -31 62 -31 -95 -12 -175 21 -248 20 -270 -5 -17 -19 -16 -21 31
-65 86 -79 202 -128 267 -111 13 3 38 26 56 51 45 63 68 61 73 -7 2 -29 4 -54
4 -54 -1 -1 -74 -6 -163 -12 -88 -5 -166 -13 -173 -17 -19 -12 27 -52 79 -70
25 -9 96 -20 156 -26 61 -5 115 -11 121 -13 5 -2 16 -24 23 -47 7 -24 22 -62
33 -84 l19 -40 -23 26 c-13 15 -36 33 -53 42 -35 17 -123 37 -166 37 l-29 0
45 -55 c44 -55 57 -77 33 -57 -17 12 -109 32 -153 32 l-35 0 0 50 0 50 -62
-45 c-34 -25 -71 -45 -82 -45 -18 0 -18 1 -3 13 26 20 37 60 23 88 -24 48
-128 56 -193 14 -16 -11 -23 -12 -31 -2 -13 17 -58 107 -67 135 -6 21 -4 23
14 17 55 -17 134 43 147 111 8 42 -1 51 -60 60 l-38 7 30 13 c17 7 33 21 37
33 4 15 16 21 48 23 39 3 42 5 50 42 6 24 17 40 28 43 11 3 19 16 21 37 3 30
5 31 56 34 l52 3 1 42 c1 23 4 89 8 146 l6 104 40 14 c22 7 45 21 52 30 10 13
7 21 -18 44 -37 35 -31 51 14 37 17 -5 64 -17 104 -25z m5852 16 c28 -23 29
-22 -28 -38 -23 -7 -50 -15 -59 -19 -9 -3 -1 13 18 36 18 23 36 42 39 42 3 -1
17 -10 30 -21z m-3690 -3 c18 -22 92 -36 190 -36 50 0 91 -3 91 -8 0 -8 -166
-165 -180 -170 -4 -2 -11 9 -14 23 -4 14 -37 57 -75 95 -63 65 -67 71 -54 90
17 24 26 25 42 6z m-3039 -72 c0 -3 -7 -16 -16 -29 -14 -21 -19 -22 -40 -13
-17 8 -23 16 -18 27 4 9 9 31 12 48 l4 33 29 -31 c16 -17 29 -33 29 -35z
m5943 47 c8 -31 62 -52 151 -58 l84 -6 -16 -36 c-24 -55 -20 -180 7 -224 27
-44 47 -52 78 -31 21 13 19 7 -15 -43 -21 -32 -54 -84 -72 -117 l-33 -59 -13
42 c-7 23 -18 49 -26 58 -19 24 -95 55 -125 51 -40 -5 -38 15 4 52 l38 33 -35
-7 c-19 -3 -52 -18 -72 -31 -21 -14 -38 -23 -38 -20 0 3 9 24 21 46 11 23 19
42 17 44 -2 2 -57 -21 -122 -51 -66 -29 -121 -52 -123 -51 -2 2 51 82 118 178
66 96 127 191 136 212 17 41 28 47 36 18z m-2295 2 l53 -6 -60 -29 c-34 -16
-66 -38 -72 -49 -12 -23 -4 -54 11 -44 5 3 10 2 10 -3 0 -4 -31 -30 -68 -55
-50 -34 -83 -49 -118 -53 -27 -4 -53 -10 -59 -14 -5 -4 -36 -4 -67 -1 l-57 6
87 94 87 93 0 -46 c0 -52 12 -66 61 -66 61 0 104 60 104 148 0 36 1 36 88 25z
m946 -8 c-4 -8 -16 -15 -28 -15 -21 1 -21 1 -2 15 25 19 37 19 30 0z m1726
-89 c0 -56 15 -96 35 -96 21 0 19 -24 -5 -45 -20 -18 -20 -17 -20 12 0 17 -15
60 -33 97 -33 65 -32 73 6 75 14 1 17 -7 17 -43z m-3347 -92 c9 -18 29 -41 44
-53 33 -24 27 -31 -52 -57 -94 -31 -115 -71 -35 -66 27 2 50 1 50 -2 0 -3 -18
-30 -39 -61 l-40 -56 -6 45 c-8 48 -19 59 -29 29 -4 -10 -16 -29 -27 -43 -17
-21 -19 -22 -10 -3 15 30 -10 37 -90 24 -45 -8 -65 -7 -70 0 -14 23 5 50 46
68 52 23 89 74 106 146 9 38 24 63 63 103 l51 53 11 -48 c6 -26 18 -62 27 -79z
m-341 57 c-28 -40 -35 -41 -46 -5 -5 17 0 22 31 31 21 6 39 11 40 12 2 0 -10
-17 -25 -38z m4307 14 l49 -24 -13 -38 c-7 -21 -16 -69 -20 -106 -7 -64 -9
-68 -29 -63 -51 14 -153 18 -160 7 -18 -29 6 -93 60 -154 47 -54 52 -63 36
-71 -9 -5 -80 -31 -157 -57 l-140 -48 -9 26 c-7 22 -2 32 46 82 30 31 64 72
75 91 11 19 33 58 49 85 26 46 53 110 54 127 0 4 -37 -11 -83 -33 -61 -29
-114 -45 -195 -59 -61 -11 -122 -24 -137 -30 -14 -5 -25 -7 -25 -3 0 3 21 35
48 69 l47 64 143 0 c122 0 148 3 181 20 41 20 82 63 107 111 8 16 17 29 20 29
2 0 27 -11 53 -25z m-2277 -20 c29 -19 61 -38 70 -41 13 -4 18 -16 18 -42 0
-44 27 -101 55 -116 29 -16 33 -24 40 -90 3 -34 8 -77 11 -97 7 -47 -23 -79
-74 -79 -18 0 -42 -4 -52 -10 -15 -8 -19 -5 -25 18 -13 51 -23 54 -72 21 -24
-17 -46 -29 -48 -27 -2 2 2 27 9 55 16 61 30 173 22 173 -3 0 -45 -20 -93 -45
-48 -24 -89 -42 -91 -40 -6 5 27 103 51 150 23 48 117 205 122 205 2 0 27 -16
57 -35z m2496 -60 c2 -2 2 -18 0 -35 l-3 -32 -33 41 -33 41 33 -7 c18 -3 34
-7 36 -8z m466 0 c28 -21 94 -28 150 -15 27 6 50 9 53 7 3 -4 -22 -195 -32
-243 -4 -16 -54 -53 -59 -42 0 2 -12 15 -24 30 -19 21 -22 30 -13 46 18 34 4
52 -41 52 -30 0 -39 3 -35 14 17 44 29 97 24 102 -3 4 -24 7 -47 8 -22 0 -40
2 -40 4 0 7 33 52 39 52 3 0 14 -7 25 -15z m-5096 -105 c1 -23 0 -23 -8 -5 -5
11 -8 34 -8 50 0 29 0 29 8 5 4 -14 8 -36 8 -50z m-7 -66 c8 -8 20 -14 26 -14
10 0 55 -141 47 -149 -2 -2 -5 -2 -7 0 -21 31 -151 179 -160 183 -7 3 8 2 33
-1 25 -3 52 -12 61 -19z m1595 -67 c1 -102 18 -141 77 -168 23 -10 59 -19 79
-19 31 0 38 4 45 27 8 22 11 6 16 -77 4 -58 16 -156 27 -218 12 -62 20 -118
18 -123 -3 -8 -44 22 -180 133 l-48 39 -1 -48 c-2 -68 1 -94 12 -129 25 -81
160 -143 211 -97 10 9 20 14 22 12 2 -2 -25 -58 -61 -123 l-66 -119 -18 36
c-24 46 -81 92 -138 112 -82 28 -91 20 -91 -84 0 -46 -2 -52 -15 -41 -11 9
-15 9 -15 1 0 -9 -5 -9 -21 -1 -11 7 -24 9 -27 5 -13 -12 -14 -231 -2 -276 8
-29 26 -57 52 -82 l39 -37 -38 17 c-21 9 -54 31 -73 49 -57 52 -100 64 -100
28 0 -8 -10 -14 -22 -14 -41 0 -51 -14 -43 -61 9 -64 25 -110 48 -140 18 -25
18 -33 7 -115 -11 -88 -29 -145 -30 -96 0 33 -36 99 -61 113 -12 6 -37 9 -56
7 l-35 -4 5 70 c7 82 -8 141 -36 141 -9 0 -42 -24 -72 -54 -69 -68 -81 -62
-65 35 6 38 16 81 21 95 8 20 7 34 -4 55 -8 16 -17 46 -20 66 -5 35 -3 39 63
97 83 74 104 120 71 155 -12 12 -21 34 -21 48 0 53 -60 62 -82 12 -11 -24 -28
-33 -28 -14 0 5 -15 16 -32 24 -18 8 -48 28 -67 44 l-34 29 53 6 c57 7 130 44
155 79 8 13 15 35 15 51 0 28 0 29 43 20 70 -13 123 -9 146 11 31 28 26 61
-11 89 -34 25 -146 67 -182 67 -18 1 -16 4 9 18 17 9 59 36 92 60 34 23 67 42
72 42 7 0 11 -22 11 -53 0 -35 8 -68 23 -97 19 -39 27 -45 58 -48 54 -4 69 16
69 92 0 34 -6 84 -13 111 l-13 50 122 0 c67 0 125 3 129 7 9 9 -51 95 -75 108
-10 5 -30 10 -44 10 -14 0 -26 2 -26 4 0 5 144 146 150 146 3 0 5 -37 6 -83z
m-802 32 c32 -33 71 -52 127 -63 36 -6 37 -7 37 -55 0 -88 36 -118 130 -106
28 4 52 4 52 2 0 -17 -245 -178 -391 -257 -80 -43 -89 -46 -83 -27 24 75 31
142 13 132 -5 -4 -3 9 5 28 13 31 13 36 -1 41 -26 11 -62 6 -179 -20 -63 -15
-118 -24 -121 -20 -10 10 29 116 68 186 32 56 40 65 63 62 21 -2 32 6 58 45
62 90 72 96 136 89 45 -5 63 -13 86 -37z m1892 -67 c-12 -11 -16 6 -9 39 l8
34 3 -33 c2 -19 1 -36 -2 -40z m679 -44 c0 -35 3 -75 8 -90 l7 -28 -78 0
c-109 0 -172 -10 -172 -26 0 -49 125 -96 338 -129 39 -6 43 -10 38 -29 -4 -11
-14 -51 -23 -88 -15 -62 -33 -90 -33 -53 0 40 -108 98 -137 73 -21 -17 -15
-70 17 -127 17 -30 28 -56 26 -58 -10 -10 -66 -3 -121 15 -81 27 -98 19 -106
-47 -4 -28 -13 -58 -19 -67 -11 -13 -16 -12 -38 8 -13 13 -28 33 -33 46 -5 12
-17 22 -28 22 -10 0 -44 12 -75 26 l-57 26 -45 -37 c-25 -21 -47 -35 -49 -33
-6 6 13 134 30 203 18 70 79 200 128 268 l34 47 12 -26 c11 -25 14 -26 79 -22
88 5 131 28 222 115 41 40 75 73 75 73 1 0 1 -28 0 -62z m-595 -58 c11 0 47
11 80 24 33 14 60 23 60 20 0 -2 -16 -25 -36 -51 -94 -123 -147 -287 -163
-498 l-6 -90 -29 80 c-15 44 -53 128 -82 187 -30 59 -54 111 -54 115 0 5 24 8
54 9 87 1 156 55 159 125 l2 34 -53 3 c-29 2 -52 6 -50 10 2 4 14 23 27 43
l24 35 23 -23 c13 -13 32 -23 44 -23z m953 25 c-3 -9 -8 -14 -10 -11 -3 3 -2
9 2 15 9 16 15 13 8 -4z m1569 -24 c13 -5 34 -12 48 -15 23 -5 25 -9 22 -48
-3 -34 -9 -46 -27 -54 -15 -7 -27 -8 -33 -2 -15 15 -33 -48 -39 -137 l-6 -81
-71 13 c-44 8 -103 10 -155 6 -93 -7 -90 -10 -42 57 99 138 121 158 173 151
29 -4 59 19 74 55 8 18 14 37 13 41 -4 25 6 29 43 14z m-5298 -22 c-31 -12
-39 -10 -19 5 11 8 24 12 29 8 5 -3 1 -9 -10 -13z m4474 -37 c2 -7 -2 -10 -12
-6 -11 4 -16 0 -16 -15 0 -12 -11 -26 -29 -35 -16 -9 -42 -27 -59 -41 l-31
-26 -43 27 -43 27 25 10 c14 6 57 25 95 44 71 33 105 38 113 15z m-2272 -69
c-2 -28 83 -73 163 -87 l72 -12 70 -119 70 -120 -50 52 c-51 54 -103 86 -158
98 -55 11 -47 -8 75 -176 28 -40 51 -74 49 -75 -2 -2 -31 6 -66 16 -34 11 -69
20 -76 20 -32 0 35 -159 68 -160 6 -1 -8 -11 -33 -23 -62 -30 -63 -50 -3 -81
26 -14 40 -25 31 -26 -10 0 -18 -4 -18 -8 0 -4 -15 -13 -34 -20 -18 -7 -41
-21 -51 -32 -17 -19 -17 -21 -1 -39 12 -13 37 -22 75 -26 95 -10 133 -17 127
-22 -3 -3 -73 0 -155 8 -154 13 -286 4 -317 -21 -6 -6 -16 -10 -20 -8 -5 1
-27 -6 -49 -16 -22 -9 -65 -25 -95 -35 -31 -10 -83 -33 -117 -50 -35 -17 -65
-31 -67 -31 -6 0 17 66 50 147 21 49 31 62 52 66 15 3 35 -1 46 -9 34 -23 97
-17 147 14 75 48 160 153 183 228 7 22 5 22 -128 20 l-134 -2 68 136 c57 112
75 140 107 160 47 31 81 95 96 184 6 37 14 66 18 66 4 0 6 -8 5 -17z m2766
-30 c-11 -16 -31 -50 -45 -78 -52 -103 -97 -127 -97 -52 0 42 1 44 39 55 26 8
51 27 76 57 40 50 57 61 27 18z m-1112 0 c0 -5 -39 -26 -85 -47 -47 -21 -109
-54 -138 -72 -28 -18 -53 -32 -54 -30 -1 1 3 18 9 38 10 35 12 36 61 35 40 -1
53 3 68 22 11 13 19 32 19 42 0 17 8 19 60 19 33 0 60 -3 60 -7z m890 -80 l0
-36 -25 23 c-35 33 -32 41 18 49 4 0 7 -16 7 -36z m993 0 c-13 -2 -33 -2 -45
0 -13 2 -3 4 22 4 25 0 35 -2 23 -4z m-1830 -65 c-26 -3 -64 -6 -83 -6 -34 0
-33 0 25 28 l60 28 23 -21 24 -22 -49 -7z m-2990 -12 c3 -7 29 -26 59 -41 l53
-27 -70 6 c-38 3 -87 6 -107 6 -21 0 -38 3 -38 8 0 8 79 62 91 62 4 0 9 -6 12
-14z m3604 -77 c33 -35 46 -41 96 -48 32 -4 63 -13 69 -19 9 -9 -22 -12 -129
-12 -151 0 -158 -2 -141 -50 13 -35 45 -67 97 -98 l45 -26 -30 -13 c-16 -6
-50 -12 -76 -13 -55 0 -67 -12 -36 -35 22 -16 14 -17 -146 -11 -93 3 -201 6
-240 6 -62 0 -73 3 -85 21 -11 19 -11 21 2 16 8 -3 35 -9 61 -12 38 -6 47 -4
53 10 9 25 -25 50 -92 70 -30 8 -55 19 -55 23 0 5 16 23 35 42 48 47 46 60
-12 60 -35 0 -44 3 -33 10 22 14 84 12 206 -6 58 -8 108 -13 111 -11 2 3 -1
15 -7 27 -16 31 -72 51 -157 57 -61 5 -73 9 -71 22 5 23 41 25 122 5 44 -11
110 -18 176 -19 88 0 112 4 150 22 25 12 46 22 47 22 1 1 19 -17 40 -40z
m-4257 -9 c-28 -21 -33 -20 -24 4 3 9 16 16 28 16 20 0 20 -1 -4 -20z m1690 6
c0 -3 -4 -8 -10 -11 -5 -3 -10 -1 -10 4 0 6 5 11 10 11 6 0 10 -2 10 -4z
m3243 -100 l68 -34 -94 -41 c-52 -22 -103 -41 -112 -41 -17 0 -16 3 4 24 38
41 25 60 -44 66 l-60 5 45 13 c41 11 124 38 126 41 0 0 30 -14 67 -33z m-4702
-15 c26 -24 26 -40 3 -173 -12 -73 -22 -108 -31 -108 -7 0 -13 11 -13 24 0 12
-5 37 -11 55 -14 40 -41 41 -81 1 -17 -17 -31 -30 -32 -28 -1 2 -9 19 -18 39
l-16 35 44 24 c52 27 114 92 114 118 0 17 8 32 17 32 2 0 13 -9 24 -19z
m-2031 -85 c0 -4 -7 -5 -16 -2 -9 3 -19 6 -23 6 -4 0 -7 9 -8 20 -2 19 -1 19
22 2 14 -9 25 -21 25 -26z m-516 -73 c42 -50 90 -103 106 -117 17 -13 30 -27
30 -30 0 -3 -44 13 -97 35 -54 23 -112 47 -129 54 l-31 13 9 58 c12 74 16 87
26 82 5 -2 43 -44 86 -95z m7386 67 c0 -5 -5 -10 -11 -10 -5 0 -7 5 -4 10 3 6
8 10 11 10 2 0 4 -4 4 -10z m-7111 -14 c124 -1 137 -3 152 -21 10 -11 46 -31
82 -44 l66 -23 -53 -51 c-29 -29 -55 -64 -58 -79 -4 -22 0 -28 31 -42 20 -9
48 -23 63 -31 37 -21 173 -38 272 -34 69 3 90 8 116 27 l31 23 42 -32 c23 -18
43 -34 45 -35 1 -1 -5 -15 -15 -33 -12 -21 -23 -29 -33 -25 -39 16 -81 20
-145 13 -68 -7 -125 -25 -125 -39 0 -8 131 -29 230 -37 l67 -6 7 -59 c3 -32
10 -68 16 -78 6 -11 8 -20 5 -20 -12 0 -81 54 -117 93 -28 29 -43 38 -59 34
-11 -3 -39 3 -62 13 -29 13 -44 15 -48 8 -5 -7 -23 -1 -53 18 -51 32 -57 44
-23 44 50 0 64 51 20 69 -42 17 -129 31 -192 31 -66 0 -115 26 -116 62 0 19
-6 24 -34 26 -66 7 -341 214 -309 233 7 5 24 5 37 2 13 -3 85 -6 160 -7z
m6621 -37 c0 -4 -15 -10 -34 -13 -19 -4 -36 -11 -38 -17 -2 -5 -21 -12 -43
-16 l-39 -6 24 31 c23 28 30 30 77 29 29 -1 53 -5 53 -8z m-7300 -15 c0 -2 -7
-4 -15 -4 -8 0 -15 4 -15 10 0 5 7 7 15 4 8 -4 15 -8 15 -10z m3086 -40 c19
-15 34 -30 34 -34 0 -15 -36 -15 -66 0 -26 13 -30 20 -23 38 10 28 13 28 55
-4z m-3061 -124 c0 -105 -1 -110 -20 -104 -31 10 -235 90 -290 115 l-50 23 90
13 c66 9 96 9 112 1 31 -15 84 -2 123 32 19 16 35 29 35 30 0 0 0 -49 0 -110z
m337 -10 c31 -13 55 -26 53 -30 -3 -4 -32 -11 -66 -14 -35 -4 -84 -15 -110
-25 l-47 -18 -6 45 c-3 25 -19 69 -36 98 l-29 52 92 -42 c51 -24 118 -53 149
-66z m7040 68 c40 -21 56 -23 215 -23 l173 0 0 -47 0 -48 -60 -30 c-33 -16
-71 -30 -84 -30 -21 0 -25 5 -28 33 -3 36 -18 40 -33 9 -22 -43 -38 -54 -68
-48 -17 3 -41 -1 -59 -10 -27 -14 -32 -14 -39 -2 -42 76 -79 75 -79 0 0 -49 0
-49 -37 -56 -21 -3 -59 -6 -85 -6 -25 0 -48 -5 -50 -11 -2 -7 -19 -1 -42 15
-46 31 -102 49 -135 44 l-24 -3 29 -34 29 -34 -25 6 c-14 3 -53 9 -88 13 -51
5 -62 4 -60 -7 4 -18 -25 -15 -93 11 -68 25 -89 39 -71 47 25 10 73 56 88 84
14 28 14 29 -28 59 -23 17 -52 33 -65 36 -54 14 -13 19 129 16 152 -3 401 11
468 28 57 13 77 11 122 -12z m-5512 -78 c0 -5 -5 -10 -11 -10 -5 0 -7 5 -4 10
3 6 8 10 11 10 2 0 4 -4 4 -10z m2235 -50 c19 0 18 -5 -5 -55 l-18 -40 -16 40
c-9 22 -21 48 -26 57 -15 27 -12 30 20 13 16 -8 36 -15 45 -15z m-2135 -149
c0 -27 -4 -31 -26 -31 -27 0 -27 0 -21 -65 4 -61 3 -65 -14 -60 -26 9 -210
195 -193 195 31 0 74 32 98 73 l25 43 66 -63 c52 -50 65 -68 65 -92z m-1388
-4 c-5 -68 14 -68 -187 -7 -145 43 -145 42 55 41 54 -1 94 4 110 12 14 8 25
13 25 13 1 -1 -1 -27 -3 -59z m-1036 45 c6 -4 14 -20 18 -37 4 -16 9 -37 12
-46 3 -10 -5 -20 -20 -27 -21 -9 -33 -6 -78 18 -45 25 -49 30 -27 30 26 0 51
21 62 53 7 18 16 21 33 9z m6999 -15 c11 -2 -6 -9 -38 -16 -45 -10 -61 -10
-72 -1 -8 7 -15 15 -15 19 0 5 75 4 125 -2z m-5785 -66 l0 -68 -47 10 c-27 6
-50 12 -52 13 -1 2 14 21 35 44 22 23 43 48 47 56 14 25 17 15 17 -55z m272
-35 c80 -45 162 -105 155 -113 -4 -4 -209 32 -250 44 -14 4 -16 8 -7 19 7 7
13 32 13 54 1 22 4 40 7 40 3 0 40 -20 82 -44z m643 -1 c47 -42 49 -44 24 -45
-15 0 -32 -7 -39 -15 -11 -13 -8 -23 20 -61 38 -53 32 -67 -26 -62 l-39 3 -10
65 -11 65 -74 42 -75 43 66 -6 c41 -4 73 -2 85 4 26 16 23 17 79 -33z m2715
42 c0 -2 -10 -12 -22 -23 l-23 -19 19 23 c18 21 26 27 26 19z m1870 -69 c56
-17 93 -19 270 -18 112 0 202 -1 200 -3 -3 -3 -53 -37 -113 -77 -130 -86 -224
-172 -247 -223 -24 -52 -16 -75 27 -83 27 -5 33 -10 27 -23 -4 -9 -9 -28 -12
-43 -5 -32 -8 -33 -42 -13 -14 8 -35 14 -47 15 -29 0 -30 -24 -4 -66 l19 -31
-96 -11 c-52 -6 -99 -9 -104 -6 -5 3 -14 2 -21 -3 -7 -6 -39 -15 -72 -22 -33
-7 -69 -15 -80 -17 -17 -4 -17 -3 -4 5 18 11 43 113 37 151 -9 64 -120 48
-208 -31 -116 -104 -129 -119 -138 -151 -6 -25 -15 -34 -38 -38 -16 -4 -50
-18 -74 -32 -34 -20 -170 -58 -205 -58 -2 0 -1 27 2 60 7 69 10 67 -82 45 -77
-19 -78 -19 -65 6 7 11 10 22 8 25 -3 2 -67 -14 -143 -36 -76 -22 -140 -38
-143 -36 -6 6 28 69 47 86 9 8 36 17 61 18 53 4 91 26 124 71 13 18 39 44 58
57 l33 25 3 -53 c4 -65 26 -91 96 -114 28 -9 57 -19 64 -22 15 -5 17 84 2 124
-6 15 -9 28 -7 30 2 2 20 -2 40 -8 31 -10 43 -9 72 5 43 20 45 47 8 78 -20 16
-22 20 -8 15 70 -27 77 -28 101 -17 13 6 33 25 44 43 24 39 25 31 5 -42 -8
-30 -15 -69 -15 -86 0 -28 3 -32 37 -37 62 -10 73 8 73 125 l0 100 41 -36 c48
-41 98 -66 131 -66 31 0 68 26 68 48 0 15 13 17 103 17 111 1 179 22 185 58 5
26 -18 40 -128 82 l-95 36 0 68 c0 62 2 68 17 60 9 -5 21 -9 27 -9 14 0 14 75
1 100 -9 17 -7 17 43 -2 28 -11 81 -29 117 -40z m-1380 43 c17 -5 26 -15 28
-33 3 -23 -1 -27 -30 -33 -59 -12 -67 -16 -75 -39 -7 -20 -12 -22 -41 -14 -28
8 -31 11 -22 28 9 17 7 22 -17 31 -15 6 -55 14 -88 19 -44 5 -50 8 -25 9 19 1
58 10 85 20 51 19 140 24 185 12z m-4398 -66 c73 -20 147 -39 163 -44 20 -6
-42 -9 -177 -10 l-208 -1 0 30 c0 23 5 30 19 30 10 0 24 7 31 15 17 20 21 20
172 -20z m6756 -24 c94 -1 105 -3 121 -22 15 -19 22 -20 47 -12 25 8 35 5 68
-19 21 -15 45 -28 53 -28 23 0 15 -10 -61 -84 -50 -48 -76 -81 -81 -103 -9
-44 -1 -53 46 -53 37 0 39 -2 39 -30 l0 -30 -76 0 c-67 0 -80 3 -107 26 -25
21 -38 25 -67 20 -29 -4 -112 -37 -161 -63 -3 -2 -5 36 -5 85 1 70 -3 94 -18
117 l-19 29 -45 -49 c-25 -28 -61 -74 -81 -104 l-36 -55 -3 37 -3 37 -55 -40
c-54 -41 -54 -41 -54 -15 0 14 -4 25 -9 25 -12 0 -75 -71 -106 -120 -14 -22
-26 -40 -28 -40 -1 0 -2 29 -2 65 -1 62 0 66 25 71 91 20 155 51 198 94 17 17
61 81 98 143 37 62 71 117 75 123 5 6 32 8 76 3 37 -5 115 -8 171 -8z m-2693
-48 c47 -3 82 -10 79 -14 -3 -5 -45 -9 -95 -9 -90 0 -101 -5 -80 -38 5 -9 -3
-24 -26 -47 -19 -19 -33 -43 -33 -58 0 -22 -5 -25 -58 -30 -32 -4 -67 -9 -78
-13 -16 -6 -14 -2 7 22 60 67 74 109 44 134 -11 9 -25 10 -56 2 -51 -13 -49
-11 52 47 l83 47 39 -18 c23 -12 72 -21 122 -25z m-1365 7 c0 -5 -5 -10 -11
-10 -5 0 -7 5 -4 10 3 6 8 10 11 10 2 0 4 -4 4 -10z m-2222 -90 c52 0 54 -13
4 -28 -51 -16 -82 -46 -82 -82 0 -21 -4 -28 -14 -24 -22 9 -59 -34 -52 -59 4
-12 9 -35 13 -50 l6 -28 -54 22 c-77 31 -258 88 -299 95 -44 7 -67 -13 -51
-44 13 -25 5 -32 -36 -32 -32 0 -33 1 -33 43 0 24 -6 65 -14 90 -8 26 -13 47
-13 47 1 0 38 -11 82 -25 44 -14 102 -28 130 -31 27 -4 62 -15 77 -26 23 -16
100 -48 116 -48 3 0 2 43 -2 94 l-6 95 57 3 c32 2 74 0 93 -4 19 -4 54 -8 78
-8z m6768 -177 c39 -27 140 -77 188 -93 l40 -13 -23 -18 c-22 -18 -23 -18 -59
11 -44 34 -176 108 -210 117 -16 4 -21 10 -17 22 4 9 9 29 12 44 l6 28 17 -39
c10 -21 31 -48 46 -59z m-6659 -11 c-10 -10 -17 -24 -17 -30 0 -19 -13 -14
-43 18 l-29 30 53 0 c50 0 51 -1 36 -18z m-2597 -162 c0 -5 -11 -10 -24 -10
-14 0 -28 5 -31 10 -4 6 7 10 24 10 17 0 31 -4 31 -10z m3035 -30 c-28 -29
-30 -30 -43 -13 -11 16 -10 19 18 24 17 4 34 9 37 13 4 3 9 6 12 6 2 0 -8 -14
-24 -30z m-305 10 c8 -5 11 -10 5 -10 -5 0 -17 5 -25 10 -8 5 -10 10 -5 10 6
0 17 -5 25 -10z m6523 -40 c37 0 48 -3 37 -10 -8 -5 -23 -7 -33 -4 -13 4 -20
0 -23 -14 -3 -11 -20 -24 -40 -30 -34 -10 -34 -10 -34 22 0 37 8 49 28 41 7
-3 37 -5 65 -5z m-1408 -70 c-3 -5 -16 -10 -28 -9 -21 0 -21 1 -2 9 28 12 37
12 30 0z m1250 -10 c3 -5 1 -10 -4 -10 -6 0 -11 5 -11 10 0 6 2 10 4 10 3 0 8
-4 11 -10z m-682 -46 c-7 -19 -13 -17 -47 11 l-30 24 41 -11 c29 -7 40 -14 36
-24z m-5312 -15 c-14 -6 -28 -6 -33 -1 -5 5 5 9 24 10 31 0 31 -1 9 -9z m4391
-24 c-2 -14 -9 -25 -14 -25 -5 0 -6 5 -3 11 4 6 -1 17 -11 24 -18 14 -17 14 7
15 23 0 26 -3 21 -25z m-1567 -73 c-3 -3 -11 0 -18 7 -9 10 -8 11 6 5 10 -3
15 -9 12 -12z m-725 -157 c0 -2 -10 -10 -22 -16 -21 -11 -22 -11 -9 4 13 16
31 23 31 12z"/>
<path d="M7758 2180 c-9 -17 -13 -30 -8 -30 11 0 32 38 28 50 -2 5 -11 -4 -20
-20z"/>
<path d="M1122 3388 c-7 -7 -12 -19 -12 -28 0 -25 53 -101 99 -143 50 -45 47
-57 -7 -33 -22 10 -49 16 -61 14 -20 -3 -21 -4 -6 -25 16 -23 176 -79 245 -85
l35 -4 -28 -12 c-16 -7 -27 -18 -25 -24 6 -16 65 -29 96 -21 23 6 23 6 -9 39
-18 19 -38 34 -45 34 -6 0 -17 14 -25 31 -18 45 -57 89 -73 83 -9 -3 -24 18
-45 63 -50 105 -102 148 -139 111z"/>
<path d="M1495 2870 c-19 -7 -18 -9 8 -19 57 -22 197 -8 197 21 0 10 -178 9
-205 -2z"/>
</g>
</svg>
