<?xml version="1.0" standalone="no"?>
<!DOCTYPE svg PUBLIC "-//W3C//DTD SVG 20010904//EN"
 "http://www.w3.org/TR/2001/REC-SVG-20010904/DTD/svg10.dtd">
<svg version="1.0" xmlns="http://www.w3.org/2000/svg"
 width="1280.000000pt" height="640.000000pt" viewBox="0 0 1280.000000 640.000000"
 preserveAspectRatio="xMidYMid meet">
<metadata>
Created by potrace 1.15, written by Peter Selinger 2001-2017
</metadata>
<g transform="translate(0.000000,640.000000) scale(0.100000,-0.100000)"
fill="#000000" stroke="none">
<path d="M8533 5095 c-31 -329 -108 -619 -204 -770 l-39 -60 0 57 c0 31 -5 60
-11 64 -6 3 -39 9 -73 11 -56 5 -89 -2 -157 -31 -12 -5 -17 4 -26 49 -7 43 -6
96 8 223 10 92 18 222 19 290 0 134 -2 137 -60 107 -63 -33 -109 -137 -110
-250 l-1 -50 -44 108 c-79 195 -143 273 -243 295 -53 12 -80 6 -88 -22 -3 -11
-26 -51 -51 -88 -36 -52 -49 -65 -59 -57 -20 16 -107 40 -115 32 -5 -5 -13
-51 -20 -103 -6 -52 -13 -96 -14 -98 -2 -2 -14 8 -28 22 -58 58 -148 83 -237
66 -88 -16 -141 -48 -167 -100 -27 -53 -28 -88 -4 -157 18 -52 16 -64 -6 -42
-7 7 -33 17 -60 24 -54 14 -101 5 -147 -28 -24 -17 -27 -24 -22 -56 3 -20 24
-85 47 -146 46 -121 69 -198 69 -232 0 -22 -1 -22 -52 10 -48 29 -61 32 -129
32 -67 0 -81 -4 -125 -30 -38 -24 -56 -45 -81 -94 -18 -34 -33 -76 -33 -92 0
-16 -3 -29 -8 -29 -4 0 -27 45 -51 100 -33 77 -52 108 -84 135 -22 19 -46 35
-53 35 -15 0 -81 -109 -97 -161 -16 -51 -27 -49 -27 4 0 99 -54 203 -127 244
l-38 21 -56 -64 c-31 -35 -70 -90 -87 -122 -33 -63 -57 -158 -46 -188 4 -10
-14 4 -39 33 -53 57 -109 88 -179 98 l-47 7 -16 -38 c-37 -86 -29 -186 19
-257 23 -34 24 -41 19 -149 -5 -100 7 -261 23 -302 3 -9 -13 -4 -47 12 -57 28
-148 40 -190 24 -24 -9 -27 -18 -42 -124 -9 -62 -20 -147 -23 -188 -8 -104
-15 -114 -30 -45 -82 369 -76 620 21 1035 10 40 -41 -56 -76 -145 -52 -133
-77 -268 -90 -482 -14 -239 -9 -378 18 -458 32 -95 36 -118 21 -113 -36 12
-118 189 -118 254 0 18 -4 25 -14 21 -10 -4 -17 14 -26 71 -13 82 -37 152 -51
152 -5 0 -9 -53 -9 -119 0 -137 -9 -241 -21 -241 -5 0 -9 6 -9 14 0 22 -68
223 -90 267 -59 115 -154 165 -234 124 -37 -20 -43 -19 -23 3 9 10 29 44 44
77 25 54 28 71 28 170 0 95 -3 117 -24 163 -26 59 -45 65 -97 33 l-32 -19 -18
40 c-28 62 -69 98 -111 98 -50 0 -99 -26 -131 -70 l-27 -38 -48 43 c-80 73
-194 85 -258 27 -34 -31 -53 -94 -44 -150 5 -34 4 -32 -15 14 -56 139 -197
215 -345 184 -105 -22 -148 -84 -147 -214 l1 -81 -45 41 c-104 97 -181 97
-225 0 -21 -47 -25 -145 -7 -196 9 -27 8 -35 -4 -44 -17 -12 -39 -126 -30
-158 6 -26 -2 -23 -61 20 -90 66 -171 112 -243 137 -111 39 -129 33 -117 -42
9 -58 49 -136 96 -186 l42 -46 -41 6 c-78 10 -129 -4 -197 -56 -94 -72 -123
-85 -192 -84 -33 0 -69 2 -80 4 -16 3 -23 -5 -33 -38 l-14 -43 -41 36 c-176
153 -223 187 -340 244 -224 108 -486 195 -617 206 -76 7 -68 -6 20 -32 78 -24
154 -64 415 -219 233 -139 380 -237 446 -297 20 -18 67 -71 105 -118 37 -47
116 -134 174 -195 58 -60 130 -139 159 -175 l54 -64 -29 -12 c-23 -10 -33 -10
-49 0 -167 105 -348 196 -483 240 -85 29 -117 30 -65 3 35 -19 191 -144 288
-231 l72 -65 -8 -48 c-5 -26 -12 -69 -15 -95 -4 -27 -9 -48 -11 -48 -3 0 -57
51 -121 114 -227 221 -366 326 -436 326 -45 0 -76 -49 -76 -123 l-1 -42 -18
52 c-31 91 -81 141 -158 158 -48 10 -87 -32 -97 -103 -4 -30 -12 -52 -19 -52
-7 0 -48 6 -92 14 -201 35 -297 31 -330 -17 -22 -32 -18 -95 10 -155 30 -65
30 -67 5 -42 -24 24 -68 43 -86 36 -7 -3 -56 37 -111 88 -54 51 -112 100 -129
109 -43 22 -218 67 -290 74 -72 7 -67 15 -85 -148 -14 -121 -6 -349 15 -489
25 -160 97 -379 205 -620 l52 -115 -6 75 c-18 200 0 719 26 787 14 37 73 31
161 -16 143 -77 424 -181 617 -228 125 -30 246 -30 278 0 19 16 21 16 37 -1
27 -31 111 -72 157 -78 39 -5 79 1 144 21 19 6 20 1 20 -77 1 -128 43 -190
148 -219 87 -23 159 24 198 131 l22 61 37 -36 c60 -58 126 -67 196 -24 35 21
64 73 64 112 0 34 8 38 56 26 21 -6 139 -10 262 -9 133 0 222 -3 222 -9 0 -5
-8 -12 -17 -16 -21 -7 -65 -46 -110 -98 -26 -30 -33 -47 -33 -79 0 -37 6 -47
49 -89 68 -65 181 -120 263 -126 70 -6 159 14 214 48 39 24 47 24 34 2 -5 -10
-18 -48 -29 -85 l-19 -67 39 -15 c50 -20 121 -20 159 -1 18 9 56 60 110 145
53 85 91 135 106 141 14 5 93 16 177 24 83 9 195 23 247 32 52 9 131 17 175
17 59 1 92 7 125 22 69 33 123 77 157 127 l30 46 -5 -73 c-9 -150 40 -213 186
-239 131 -24 249 10 340 99 42 42 51 58 63 111 l13 63 21 -43 c42 -84 128 -96
251 -35 34 17 115 69 179 115 65 46 120 81 123 78 3 -2 -30 -74 -72 -160 -85
-170 -106 -231 -106 -318 0 -53 2 -58 28 -68 15 -6 59 -14 99 -16 132 -10 272
52 339 149 l32 47 6 -39 c14 -89 82 -123 189 -95 154 40 240 134 268 292 l11
59 31 -31 c55 -55 155 -68 276 -36 132 35 186 92 204 216 10 70 13 76 32 70
11 -3 63 -12 115 -20 52 -9 122 -24 155 -35 102 -33 176 -48 285 -60 118 -13
243 -6 264 16 18 18 26 18 26 0 0 -21 47 -74 84 -94 24 -13 54 -17 133 -16 56
1 100 -2 97 -7 -9 -15 26 -153 52 -203 84 -163 227 -241 374 -206 81 19 102
48 140 192 18 68 41 147 52 176 20 54 20 54 36 30 42 -61 78 -63 138 -5 28 26
53 63 68 100 16 40 25 52 28 40 3 -13 16 -19 39 -21 50 -4 137 -28 304 -85
135 -45 159 -50 240 -51 79 0 96 3 141 26 29 15 69 43 89 63 21 19 38 35 39
35 1 0 -1 -22 -2 -49 -8 -108 46 -153 155 -131 133 28 191 88 239 245 21 70
39 97 30 45 -3 -19 -6 -96 -7 -171 -2 -206 19 -239 151 -239 161 0 261 97 285
275 14 110 11 105 64 105 87 0 208 85 229 160 6 24 7 23 12 -10 l5 -35 90 -3
c147 -5 220 29 252 117 l17 48 230 -1 231 -1 100 44 c55 24 125 52 155 61 54
17 55 19 69 68 17 63 9 108 -29 161 l-30 41 -106 0 -106 0 49 36 c26 21 65 52
85 70 20 18 54 37 75 43 295 77 287 77 314 16 26 -59 55 -210 80 -415 11 -91
27 -196 36 -234 8 -38 18 -101 22 -140 l7 -71 27 52 c15 29 34 79 42 110 46
173 19 559 -60 851 -44 164 -51 169 -194 158 -208 -17 -257 -23 -281 -36 -14
-7 -81 -67 -150 -134 -69 -67 -139 -127 -157 -135 -29 -12 -38 -9 -156 43 -68
31 -131 56 -141 56 -14 0 -16 16 -16 128 -1 176 -14 264 -50 338 -50 102 -137
169 -285 220 -72 25 -94 28 -215 28 -162 1 -175 -4 -371 -122 -115 -69 -192
-106 -339 -163 -34 -14 -18 -1 65 54 141 92 270 221 474 472 118 145 147 188
195 283 87 172 131 360 152 642 17 237 17 284 -2 165 -19 -126 -44 -200 -130
-398 -98 -221 -115 -254 -176 -340 -56 -79 -205 -264 -216 -269 -4 -2 -77 -86
-163 -188 -86 -102 -163 -191 -172 -199 -15 -12 -17 -10 -17 17 0 18 27 81 65
156 96 183 105 215 112 386 7 176 -6 272 -48 357 -33 69 -65 97 -131 114 -40
11 -53 10 -114 -10 -38 -12 -90 -37 -115 -55 -41 -30 -139 -135 -139 -149 0
-3 15 2 33 11 48 25 249 24 295 -1 75 -41 92 -116 61 -265 -15 -71 -19 -106
-11 -111 6 -4 -5 -49 -35 -128 l-44 -121 -34 14 c-49 20 -84 17 -142 -11 -64
-32 -137 -110 -169 -180 -14 -30 -26 -55 -27 -55 -1 0 -2 51 -2 113 0 101 -2
116 -25 155 -13 24 -38 52 -56 62 -34 22 -97 26 -138 10 l-26 -10 24 48 c55
108 72 206 45 250 -19 31 -74 46 -126 34 -24 -6 -43 -8 -43 -6 0 2 14 23 31
48 19 27 33 61 36 88 5 40 2 49 -28 83 -40 45 -119 85 -170 85 -43 0 -95 -32
-126 -79 l-23 -34 0 33 c0 19 -9 52 -20 75 -67 138 -346 86 -455 -85 -27 -43
-52 -120 -58 -178 -6 -54 -13 -61 -20 -22 -14 67 -110 59 -185 -15 l-43 -43
-46 20 c-37 16 -58 19 -105 14 -33 -3 -69 -11 -81 -17 l-22 -12 20 24 c11 13
45 51 76 85 117 128 196 277 219 415 6 35 13 150 17 254 6 182 5 194 -20 290
-14 55 -27 114 -29 130 -2 17 -9 -28 -15 -100z m2838 -1833 c62 -35 206 -318
234 -460 7 -32 6 -33 -22 -25 -15 4 -68 7 -118 7 l-90 -1 0 67 c0 89 -30 136
-112 177 -56 27 -63 28 -208 28 -131 -1 -157 -4 -205 -23 -67 -27 -76 -27 -83
-3 -2 10 -17 27 -33 37 -24 17 -48 19 -174 18 -87 -1 -175 -7 -220 -17 -41 -8
-77 -13 -79 -11 -2 2 2 5 10 8 8 2 55 15 104 30 266 79 333 97 470 130 83 20
191 43 240 50 105 17 247 11 286 -12z m-9046 -550 l40 -8 -25 -14 c-14 -7 -28
-17 -31 -21 -3 -5 -21 7 -40 27 -32 34 -33 35 -9 30 14 -3 43 -10 65 -14z"/>
</g>
</svg>
