<?xml version="1.0" standalone="no"?>
<!DOCTYPE svg PUBLIC "-//W3C//DTD SVG 20010904//EN"
 "http://www.w3.org/TR/2001/REC-SVG-20010904/DTD/svg10.dtd">
<svg version="1.0" xmlns="http://www.w3.org/2000/svg"
 width="1280.000000pt" height="924.000000pt" viewBox="0 0 1280.000000 924.000000"
 preserveAspectRatio="xMidYMid meet">
<metadata>
Created by potrace 1.15, written by Peter Selinger 2001-2017
</metadata>
<g transform="translate(0.000000,924.000000) scale(0.100000,-0.100000)"
fill="#000000" stroke="none">
<path d="M1577 9232 c-10 -15 -115 -452 -141 -587 -86 -436 -114 -791 -97
-1226 27 -674 109 -1146 392 -2240 135 -522 180 -750 281 -1404 38 -246 29
-579 -33 -1230 -29 -308 -26 -301 -60 -165 -82 328 -200 649 -268 730 l-20 25
-1 -43 c0 -23 21 -149 46 -280 137 -712 196 -1193 165 -1337 -4 -19 -11 34
-19 140 -47 621 -179 1265 -354 1735 -49 131 -111 264 -142 305 -10 14 -18 17
-25 10 -13 -13 -4 -77 59 -401 83 -423 181 -1046 167 -1060 -2 -2 -12 35 -22
83 -91 449 -300 1033 -368 1033 -12 0 -4 -96 17 -200 34 -168 97 -504 120
-640 23 -132 36 -222 66 -440 32 -231 70 -752 69 -930 l0 -105 -24 110 c-87
405 -237 721 -448 941 -76 80 -100 98 -185 140 -91 46 -101 54 -157 128 -96
126 -199 216 -314 275 -55 28 -111 51 -125 51 -24 0 -26 -2 -15 -21 6 -11 65
-78 132 -148 144 -150 230 -274 326 -471 113 -230 195 -500 247 -810 37 -221
31 -232 -16 -32 -95 408 -301 798 -531 1005 -87 79 -299 185 -299 149 0 -16
38 -61 144 -172 121 -126 199 -234 281 -392 138 -264 225 -557 280 -930 13
-93 44 -419 45 -470 0 -16 -12 -18 -105 -18 l-105 0 0 -170 0 -170 6130 0
6130 0 0 170 0 170 -164 0 -164 0 -6 82 c-25 380 -41 575 -57 708 -10 85 -19
175 -19 199 0 24 18 161 40 305 64 424 69 488 35 439 -17 -24 -75 -192 -104
-298 -12 -44 -25 -87 -28 -95 -3 -8 -16 32 -29 90 -49 217 -119 420 -144 420
-14 0 -12 -114 5 -280 9 -80 27 -265 40 -413 l24 -267 -29 -173 c-16 -95 -37
-247 -46 -338 l-18 -164 -12 125 c-14 143 -25 230 -59 455 -19 131 -25 217
-30 475 -8 443 -30 731 -60 789 -12 23 -13 24 -22 5 -20 -37 -63 -371 -63
-486 0 -45 -2 -49 -20 -43 -19 6 -20 2 -20 -77 l-1 -83 -18 53 c-10 30 -26 61
-35 70 -15 15 -16 11 -16 -49 0 -35 12 -177 27 -314 24 -230 26 -286 27 -692
l1 -443 -42 0 -43 0 0 353 c0 808 -34 1407 -80 1407 -5 0 -15 -21 -22 -47 -7
-27 -14 -40 -16 -30 -6 28 -20 19 -32 -20 -26 -96 -60 -491 -81 -963 -6 -140
-12 -256 -14 -258 -3 -4 -71 354 -90 481 -19 125 -29 67 97 602 83 357 116
530 104 542 -13 13 -42 -32 -91 -144 -47 -107 -146 -370 -161 -428 l-8 -30 -7
40 c-11 60 -10 473 1 605 6 63 22 192 36 285 47 313 44 346 -20 213 -72 -153
-134 -394 -167 -658 -18 -140 -18 -641 0 -821 l13 -137 -33 -138 c-38 -163
-36 -167 -71 111 -19 153 -23 226 -22 490 0 288 2 323 27 485 40 250 42 271
29 279 -8 5 -9 23 -3 61 15 95 -3 91 -54 -10 -92 -184 -175 -592 -175 -869 0
-52 -2 -92 -5 -90 -7 8 -77 278 -95 373 -10 48 -22 91 -27 95 -6 3 -36 85 -68
181 -104 316 -260 688 -292 698 -18 5 -17 -63 2 -163 9 -44 49 -223 90 -398
167 -708 194 -848 186 -947 l-6 -75 -13 50 c-39 150 -120 416 -175 577 -50
144 -66 203 -71 269 -7 82 -22 187 -32 222 -10 34 -32 17 -44 -35 l-13 -52
-23 47 c-13 25 -29 49 -35 53 -17 10 -5 -119 21 -231 11 -48 18 -95 16 -104
-5 -16 -29 -395 -45 -706 l-8 -160 -2 150 c-2 214 -19 720 -31 920 -18 302
-41 466 -65 466 -6 0 -16 -18 -22 -42 -14 -47 -43 -294 -43 -363 0 -34 -3 -44
-14 -40 -18 7 -22 -7 -40 -128 -30 -208 -59 -741 -73 -1333 l-7 -320 -18 90
c-88 450 -113 678 -112 1050 0 289 2 322 27 485 38 237 42 280 29 280 -30 0
-116 -245 -151 -430 -38 -200 -45 -292 -46 -556 l0 -262 -22 122 c-45 244
-121 504 -150 514 -22 7 -17 -68 46 -703 5 -49 8 -91 6 -93 -2 -2 -9 23 -15
55 -20 93 -69 251 -105 338 -25 59 -38 112 -50 204 -41 311 -126 692 -215 961
-100 304 -217 520 -194 362 3 -26 28 -162 55 -302 61 -322 104 -576 120 -705
l11 -100 -35 -115 c-46 -151 -80 -280 -122 -470 -41 -180 -40 -172 26 263 47
312 59 430 46 444 -14 14 -89 -198 -152 -432 -41 -154 -40 -142 26 305 54 358
69 510 51 510 -23 0 -106 -240 -176 -510 -124 -477 -206 -1000 -232 -1493 l-7
-127 -90 0 -90 0 7 73 c9 91 50 383 71 502 9 50 25 142 36 205 34 199 107 543
170 810 11 47 29 121 39 165 10 44 30 127 44 185 62 261 80 396 54 388 -32 -9
-170 -332 -274 -636 l-49 -144 -17 111 c-16 103 -42 190 -53 179 -2 -2 -9 -86
-15 -187 -22 -382 -53 -548 -276 -1453 -40 -163 -52 -198 -66 -198 -10 0 -18
2 -18 3 0 2 22 98 49 213 130 550 204 947 230 1244 16 168 14 468 -4 580 -20
132 -43 205 -60 188 -4 -3 -10 -86 -15 -184 -14 -277 -38 -469 -90 -714 l-20
-95 6 120 c11 223 -34 555 -75 555 -10 0 -21 -106 -21 -210 -1 -241 -81 -715
-195 -1160 l-14 -55 0 60 c-4 241 -35 646 -67 880 -44 313 -127 684 -214 945
-100 304 -217 520 -194 362 3 -26 28 -162 55 -302 95 -502 131 -746 164 -1109
25 -280 35 -686 25 -991 -5 -151 -9 -287 -10 -302 0 -25 -4 -28 -35 -28 -35 0
-35 0 -30 37 24 178 33 871 15 1189 -48 848 -212 1648 -463 2261 -74 180 -153
323 -177 323 -23 0 -6 -118 70 -490 90 -440 137 -705 175 -979 14 -102 25
-187 24 -190 0 -3 -16 50 -35 119 -81 293 -196 600 -257 682 l-32 43 -3 -45
c-2 -25 1 -70 7 -100 5 -30 32 -172 60 -315 89 -465 127 -712 160 -1025 26
-242 52 -661 50 -790 l-1 -65 -9 45 c-81 393 -202 690 -375 916 -33 44 -54 81
-54 97 0 30 -15 44 -24 21 -5 -13 -17 -6 -60 34 -30 27 -95 70 -146 95 -81 40
-96 53 -142 114 -29 37 -88 104 -133 148 -65 65 -100 90 -183 133 -97 49 -152
64 -152 42 0 -5 53 -65 118 -132 174 -181 165 -164 150 -300 -6 -62 -12 -114
-13 -115 0 -1 -32 27 -70 63 -38 36 -104 84 -146 107 l-77 42 5 52 c7 65 -8
70 -37 13 -14 -27 -27 -40 -41 -40 -17 0 -20 -4 -14 -29 4 -20 -4 -53 -31
-117 -20 -49 -61 -154 -89 -233 l-53 -145 -7 120 c-16 252 4 564 59 924 13 85
22 158 19 163 -8 14 -23 -4 -52 -62 -71 -139 -135 -391 -167 -652 -21 -172
-24 -575 -5 -804 l14 -170 -28 -120 c-15 -66 -29 -127 -32 -135 -16 -41 -62
369 -69 615 -7 219 5 415 41 652 27 175 30 223 16 223 -4 0 -4 23 1 51 17 92
-5 101 -46 21 -101 -200 -171 -550 -189 -937 l-2 -50 -14 60 c-96 422 -404
1273 -468 1293 -31 9 -13 -102 93 -551 93 -399 127 -549 170 -762 65 -319 147
-824 158 -975 6 -76 2 -60 -25 110 -76 474 -223 1018 -389 1436 -96 243 -158
345 -148 246 2 -22 2 -40 1 -38 -2 1 -25 48 -53 104 -27 56 -55 102 -61 102
-9 0 -10 -22 -6 -77 6 -84 24 -169 128 -603 127 -529 217 -1008 279 -1475 11
-82 20 -156 20 -162 0 -10 -24 -13 -89 -13 l-90 0 -5 53 c-3 28 -8 104 -11
167 -25 515 -154 1216 -311 1695 -50 151 -78 215 -95 215 -16 0 -6 -87 62
-544 32 -220 57 -401 55 -403 -1 -2 -13 38 -26 89 -54 223 -130 448 -158 471
-13 11 -14 2 -8 -68 4 -44 30 -228 57 -409 27 -181 48 -334 46 -339 -2 -6 -9
21 -15 59 -19 103 -87 372 -131 518 l-39 130 24 163 c32 219 46 302 105 606
27 141 53 288 56 325 6 64 6 66 -12 52 -44 -36 -162 -333 -234 -585 -65 -230
-147 -642 -167 -835 -3 -36 -19 -94 -34 -130 -35 -81 -85 -237 -110 -344 l-19
-81 5 65 c2 36 15 184 29 330 14 146 28 295 31 331 6 67 -3 91 -24 66 -31 -37
-124 -384 -151 -567 -7 -41 -13 -75 -14 -76 -1 -1 -2 133 -2 299 0 332 -11
440 -66 654 -45 175 -112 333 -133 313 -3 -3 8 -93 24 -200 55 -371 62 -626
25 -990 -20 -192 -100 -686 -115 -703 -3 -4 -7 104 -8 240 -5 521 -41 1219
-73 1418 -18 109 -20 117 -35 111 -9 -3 -14 1 -14 13 0 49 -33 335 -43 377
-33 130 -63 12 -87 -336 -14 -210 -29 -660 -31 -910 -1 -242 -13 -212 -23 60
-10 272 -42 699 -62 820 -11 70 -33 106 -49 81 -24 -39 -50 -356 -65 -771 -8
-255 -30 -1246 -30 -1394 l0 -36 -87 0 -88 0 3 127 c3 95 11 162 32 258 58
262 101 507 125 715 18 154 21 466 5 567 -15 93 -40 178 -50 167 -4 -5 -13
-96 -19 -203 -13 -221 -27 -334 -74 -576 -30 -161 -32 -167 -39 -120 -12 91
-8 189 12 330 32 232 44 484 31 651 -15 178 -52 337 -75 313 -2 -2 -9 -96 -15
-209 -6 -113 -14 -223 -18 -244 -5 -35 -7 -37 -15 -17 -4 12 -12 20 -17 17
-13 -8 -31 -121 -39 -247 l-7 -104 -8 120 c-11 196 -52 385 -77 359 -5 -5 -12
-81 -16 -169 -10 -223 -21 -286 -23 -125 -1 130 -23 530 -41 755 -30 364 -68
687 -135 1135 -8 57 -16 214 -19 390 -5 278 -4 305 20 470 80 550 217 1027
403 1398 110 219 294 518 458 741 25 36 42 61 35 57 -16 -9 -197 -262 -274
-381 -200 -310 -375 -671 -478 -986 -60 -183 -170 -644 -170 -714 0 -14 -4
-25 -9 -25 -16 0 -24 637 -12 920 46 1082 226 1790 677 2660 42 80 71 141 66
135 -31 -31 -246 -463 -340 -685 -361 -850 -488 -1701 -453 -3042 7 -237 10
-433 7 -435 -2 -2 -7 15 -11 39 -40 243 -191 839 -321 1267 -55 180 -129 484
-178 731 -163 820 -185 1614 -66 2322 29 171 32 180 90 256 l52 67 -51 -55
c-59 -64 -59 -75 -5 135 30 119 35 151 21 127z m538 -6494 c20 -304 35 -734
35 -1002 0 -324 -20 -869 -34 -941 -11 -55 -13 -40 -19 200 -3 143 -13 334
-21 425 -17 183 -19 196 -48 397 -19 136 -19 147 -4 285 33 297 66 701 66 802
0 120 12 42 25 -166z m3796 -595 c114 -118 209 -250 189 -263 -9 -5 -11 -30
-9 -83 3 -41 1 -73 -3 -71 -5 3 -8 10 -8 15 0 19 -42 109 -51 109 -15 0 -10
-104 18 -350 23 -209 26 -286 30 -698 l5 -462 -46 0 -46 0 0 443 c0 791 -30
1299 -78 1315 -6 2 -14 -9 -17 -25 -4 -15 -10 -37 -15 -48 -7 -17 -9 -17 -9
-2 -1 21 -17 23 -24 2 -24 -61 -60 -458 -77 -840 -6 -132 -13 -278 -17 -325
l-6 -85 -28 145 c-16 80 -40 213 -54 296 l-26 150 60 260 c107 469 135 584
141 584 3 0 35 -30 71 -67z m424 -87 l69 -135 17 -143 c9 -79 15 -144 14 -146
-2 -2 -17 25 -33 60 -17 35 -53 100 -80 145 -49 81 -50 83 -56 190 -4 59 -10
123 -13 142 -3 19 -2 31 3 28 5 -3 41 -66 79 -141z m256 -53 c56 -71 57 -73
47 -112 -6 -23 -14 -38 -19 -35 -5 3 -9 10 -9 15 0 5 -25 60 -56 121 -60 120
-52 123 37 11z m-5679 -108 c123 -183 234 -456 293 -720 49 -221 85 -531 85
-736 l0 -99 -89 0 -89 0 -6 183 c-23 616 -131 1126 -315 1482 -20 39 -37 75
-39 80 -8 26 106 -110 160 -190z m5861 -180 c164 -330 253 -729 274 -1222 l6
-153 -96 0 -97 0 0 159 c0 356 -54 755 -145 1072 -34 116 -34 122 -23 194 6
42 15 72 19 68 4 -5 32 -57 62 -118z m2476 -490 c7 -189 7 -384 1 -560 -5
-148 -9 -282 -10 -297 l0 -28 -86 0 -86 0 6 63 c4 34 11 121 16 192 19 233 58
544 121 960 5 33 9 67 10 75 5 48 19 -154 28 -405z m-5155 65 c52 -368 95
-767 96 -897 l0 -53 -79 0 -78 0 -7 63 c-22 224 -14 1085 11 1202 6 28 7 26
14 -20 4 -27 23 -160 43 -295z m-1667 288 c-3 -8 -6 -5 -6 6 -1 11 2 17 5 13
3 -3 4 -12 1 -19z m8083 -143 c67 -325 160 -937 160 -1051 l0 -45 -87 3 -88 3
-6 430 c-4 237 -10 517 -13 624 -3 107 -4 192 -2 190 3 -3 19 -72 36 -154z
m-4172 -57 c27 -84 59 -201 72 -260 24 -107 24 -108 7 -230 -10 -68 -21 -167
-26 -222 -11 -110 -21 -137 -21 -55 0 77 -36 370 -70 574 -18 106 -28 345 -15
345 2 0 26 -69 53 -152z m-4462 -618 c-3 -149 -9 -304 -13 -345 -5 -66 -8 -75
-26 -75 -17 0 -19 5 -14 38 3 20 9 125 12 232 5 175 30 420 43 420 3 0 2 -122
-2 -270z m1917 -167 c6 -252 6 -253 -15 -253 -21 0 -21 2 -14 193 6 177 16
321 21 315 1 -2 5 -117 8 -255z m5716 -180 c1 -72 1 -73 -25 -73 -19 0 -24 4
-20 18 2 9 8 123 12 252 l8 235 12 -180 c7 -99 13 -213 13 -252z m-3924 166
c25 -117 48 -220 50 -227 4 -10 -9 -12 -52 -10 l-57 3 -16 75 c-16 71 -15 83
4 227 11 83 22 151 23 149 1 -1 23 -99 48 -217z m5756 11 c61 -282 61 -250 -3
-250 l-55 0 -16 80 c-16 77 -15 87 5 232 12 83 23 147 25 142 1 -5 21 -97 44
-204z m-8923 13 c-3 -43 -15 -120 -28 -170 -19 -76 -27 -93 -43 -93 -13 0 -17
5 -13 18 4 14 34 138 71 300 11 46 17 19 13 -55z"/>
<path d="M3049 6923 c-13 -16 -12 -17 4 -4 9 7 17 15 17 17 0 8 -8 3 -21 -13z"/>
</g>
</svg>
