<svg width="604" height="868" viewBox="0 0 604 868" fill="none" xmlns="http://www.w3.org/2000/svg">
<path d="M276.5 262.5H346L384 868H256L276.5 262.5Z" fill="#92475C"/>
<path d="M304 568H549V577C549 582.523 544.523 587 539 587H314C308.477 587 304 582.523 304 577V568Z" fill="#92475C"/>
<rect x="530" y="578" width="58" height="19" transform="rotate(-90 530 578)" fill="#92475C"/>
<path d="M66 473C60.4772 473 56 468.523 56 463L56 415L75 415L75 473L66 473Z" fill="#92475C"/>
<path d="M56 456H301V475H66C60.4771 475 56 470.523 56 465V456Z" fill="#92475C"/>
<circle cx="539" cy="462" r="65" fill="#119DA4"/>
<circle cx="65" cy="368" r="65" fill="#119DA4"/>
<circle cx="319.5" cy="151.5" r="151.5" fill="#119DA4"/>
</svg>
